<svg width="135" height="46" viewBox="0 0 135 46" fill="none" xmlns="http://www.w3.org/2000/svg">
<rect width="135" height="46" rx="7.41597" fill="white"/>
<path d="M30.9441 25.3103C30.9707 23.2345 32.0812 21.2704 33.8427 20.1831C32.7314 18.5898 30.87 17.5796 28.9335 17.5188C26.8679 17.3011 24.8655 18.7596 23.8129 18.7596C22.74 18.7596 21.1194 17.5404 19.3743 17.5764C17.0997 17.6502 14.9791 18.9485 13.8725 20.9449C11.4936 25.0797 13.268 31.1564 15.5468 34.4986C16.6869 36.1352 18.0194 37.9633 19.7629 37.8985C21.469 37.8275 22.1063 36.8063 24.1657 36.8063C26.2061 36.8063 26.8039 37.8985 28.5828 37.8573C30.4136 37.8274 31.567 36.2134 32.6671 34.5613C33.4863 33.3952 34.1167 32.1063 34.5349 30.7426C32.3834 29.829 30.9466 27.6554 30.9441 25.3103Z" fill="#090909"/>
<path d="M27.584 15.3207C28.5822 14.1177 29.074 12.5715 28.9549 11.0104C27.4299 11.1712 26.0212 11.9029 25.0095 13.0597C24.0202 14.19 23.5053 15.7091 23.6027 17.2105C25.1283 17.2263 26.628 16.5144 27.584 15.3207Z" fill="#090909"/>
<path d="M91.7972 23.1663V25.6817H90.2266V27.3312H91.7972V32.9361C91.7972 34.85 92.6596 35.6156 94.8293 35.6156C95.2106 35.6156 95.5737 35.57 95.8915 35.5153V33.884C95.6191 33.9113 95.4466 33.9295 95.1471 33.9295C94.1757 33.9295 93.749 33.4738 93.749 32.4349V27.3312H95.8915V25.6817H93.749V23.1663H91.7972Z" fill="#090909"/>
<path d="M101.419 35.7523C104.306 35.7523 106.076 33.8111 106.076 30.5939C106.076 27.395 104.296 25.4447 101.419 25.4447C98.5318 25.4447 96.7524 27.395 96.7524 30.5939C96.7524 33.8111 98.5227 35.7523 101.419 35.7523ZM101.419 34.0116C99.721 34.0116 98.7678 32.763 98.7678 30.5939C98.7678 28.4431 99.721 27.1854 101.419 27.1854C103.107 27.1854 104.07 28.4431 104.07 30.5939C104.07 32.7539 103.107 34.0116 101.419 34.0116Z" fill="#090909"/>
<path d="M107.59 35.5609H109.542V29.7008C109.542 28.3064 110.586 27.3677 112.066 27.3677C112.411 27.3677 112.992 27.4315 113.155 27.4862V25.5541C112.947 25.4994 112.574 25.472 112.284 25.472C110.995 25.472 109.896 26.1829 109.615 27.1581H109.47V25.6361H107.59V35.5609Z" fill="#090909"/>
<path d="M118.002 27.1125C119.445 27.1125 120.389 28.1241 120.435 29.6826H115.442C115.551 28.1332 116.558 27.1125 118.002 27.1125ZM120.426 32.8815C120.062 33.6561 119.254 34.0845 118.074 34.0845C116.513 34.0845 115.505 32.9817 115.442 31.241V31.1316H122.423V30.4481C122.423 27.3312 120.761 25.4447 118.011 25.4447C115.224 25.4447 113.453 27.4588 113.453 30.6304C113.453 33.8019 115.187 35.7523 118.02 35.7523C120.28 35.7523 121.86 34.6586 122.305 32.8815H120.426Z" fill="#090909"/>
<path d="M78.9974 31.8958C79.148 34.3329 81.171 35.8915 84.182 35.8915C87.4 35.8915 89.4136 34.2573 89.4136 31.6502C89.4136 29.6004 88.2656 28.4669 85.4805 27.8151L83.9844 27.4467C82.2154 27.0311 81.5003 26.4738 81.5003 25.5008C81.5003 24.2728 82.6106 23.4699 84.2761 23.4699C85.8568 23.4699 86.9483 24.254 87.1459 25.5103H89.1971C89.0748 23.2149 87.0612 21.5996 84.3043 21.5996C81.3404 21.5996 79.3644 23.2149 79.3644 25.6425C79.3644 27.6451 80.4841 28.8353 82.9399 29.4115L84.6901 29.8366C86.4873 30.2616 87.2776 30.8851 87.2776 31.9241C87.2776 33.1332 86.0356 34.0117 84.3419 34.0117C82.5259 34.0117 81.2651 33.1899 81.0863 31.8958H78.9974Z" fill="#090909"/>
<path d="M58.7786 25.472C57.435 25.472 56.273 26.1465 55.6738 27.2765H55.5285V25.6361H53.6493V38.86H55.6012V34.0571H55.7555C56.273 35.1052 57.3896 35.7249 58.7967 35.7249C61.2932 35.7249 62.8819 33.7473 62.8819 30.5939C62.8819 27.4406 61.2932 25.472 58.7786 25.472ZM58.2248 33.966C56.5907 33.966 55.5649 32.6718 55.5649 30.603C55.5649 28.5251 56.5907 27.231 58.2339 27.231C59.8861 27.231 60.8756 28.4978 60.8756 30.5939C60.8756 32.6992 59.8861 33.966 58.2248 33.966Z" fill="#090909"/>
<path d="M69.7117 25.472C68.3681 25.472 67.2061 26.1465 66.6069 27.2765H66.4616V25.6361H64.5825V38.86H66.5343V34.0571H66.6886C67.2061 35.1052 68.3227 35.7249 69.7298 35.7249C72.2263 35.7249 73.815 33.7473 73.815 30.5939C73.815 27.4406 72.2263 25.472 69.7117 25.472ZM69.1579 33.966C67.5238 33.966 66.498 32.6718 66.498 30.603C66.498 28.5251 67.5238 27.231 69.167 27.231C70.8192 27.231 71.8087 28.4978 71.8087 30.5939C71.8087 32.6992 70.8192 33.966 69.1579 33.966Z" fill="#090909"/>
<path d="M50.1474 35.5609H52.3869L47.4846 21.9302H45.217L40.3147 35.5609H42.4788L43.7303 31.943H48.9054L50.1474 35.5609ZM46.2426 24.4051H46.4025L48.3691 30.1672H44.2666L46.2426 24.4051Z" fill="#090909"/>
<path d="M40.2606 12.316V17.7039H42.1984C43.7976 17.7039 44.7237 16.7144 44.7237 14.9931C44.7237 13.298 43.7902 12.316 42.1984 12.316H40.2606ZM41.0937 13.0777H42.1054C43.2174 13.0777 43.8757 13.7871 43.8757 15.0043C43.8757 16.2402 43.2286 16.9422 42.1054 16.9422H41.0937V13.0777Z" fill="#090909"/>
<path d="M47.5601 17.7823C48.7428 17.7823 49.468 16.987 49.468 15.6689C49.468 14.3584 48.7391 13.5594 47.5601 13.5594C46.3773 13.5594 45.6483 14.3584 45.6483 15.6689C45.6483 16.987 46.3736 17.7823 47.5601 17.7823ZM47.5601 17.0691C46.8645 17.0691 46.474 16.5576 46.474 15.6689C46.474 14.7878 46.8645 14.2725 47.5601 14.2725C48.2518 14.2725 48.6461 14.7878 48.6461 15.6689C48.6461 16.5538 48.2518 17.0691 47.5601 17.0691Z" fill="#090909"/>
<path d="M55.6442 13.6378H54.8446L54.1231 16.7405H54.0598L53.2267 13.6378H52.4606L51.6274 16.7405H51.5679L50.8427 13.6378H50.0319L51.1477 17.7039H51.9696L52.8027 14.7094H52.866L53.7028 17.7039H54.5322L55.6442 13.6378Z" fill="#090909"/>
<path d="M56.5651 17.7039H57.3648V15.3254C57.3648 14.6907 57.7404 14.2949 58.3318 14.2949C58.9231 14.2949 59.2058 14.6197 59.2058 15.2732V17.7039H60.0055V15.0715C60.0055 14.1045 59.5071 13.5594 58.6033 13.5594C57.9933 13.5594 57.5917 13.8319 57.3945 14.2837H57.335V13.6378H56.5651V17.7039Z" fill="#090909"/>
<path d="M61.2648 17.7039H62.0644V12.0509H61.2648V17.7039Z" fill="#090909"/>
<path d="M65.0718 17.7823C66.2546 17.7823 66.9798 16.987 66.9798 15.6689C66.9798 14.3584 66.2508 13.5594 65.0718 13.5594C63.8891 13.5594 63.1601 14.3584 63.1601 15.6689C63.1601 16.987 63.8854 17.7823 65.0718 17.7823ZM65.0718 17.0691C64.3763 17.0691 63.9858 16.5576 63.9858 15.6689C63.9858 14.7878 64.3763 14.2725 65.0718 14.2725C65.7636 14.2725 66.1579 14.7878 66.1579 15.6689C66.1579 16.5538 65.7636 17.0691 65.0718 17.0691Z" fill="#090909"/>
<path d="M69.3624 17.0952C68.9272 17.0952 68.6111 16.8824 68.6111 16.5165C68.6111 16.1581 68.864 15.9676 69.4219 15.9303L70.4112 15.8668V16.2066C70.4112 16.7107 69.9649 17.0952 69.3624 17.0952ZM69.1578 17.7711C69.6897 17.7711 70.1323 17.5396 70.374 17.1326H70.4373V17.7039H71.2071V14.9259C71.2071 14.0671 70.6344 13.5594 69.619 13.5594C68.7004 13.5594 68.0458 14.0074 67.9639 14.7056H68.7375C68.8268 14.4181 69.1355 14.2538 69.5818 14.2538C70.1286 14.2538 70.4112 14.4965 70.4112 14.9259V15.2769L69.314 15.3404C68.3507 15.4001 67.8077 15.822 67.8077 16.5538C67.8077 17.2969 68.3768 17.7711 69.1578 17.7711Z" fill="#090909"/>
<path d="M73.9207 17.7711C74.4786 17.7711 74.951 17.506 75.1927 17.0616H75.2559V17.7039H76.0221V12.0509H75.2225V14.2837H75.163C74.9435 13.8357 74.4749 13.5706 73.9207 13.5706C72.8979 13.5706 72.2396 14.3845 72.2396 15.6689C72.2396 16.9571 72.8905 17.7711 73.9207 17.7711ZM74.1476 14.2912C74.8171 14.2912 75.2373 14.8251 75.2373 15.6727C75.2373 16.524 74.8208 17.0504 74.1476 17.0504C73.4707 17.0504 73.0653 16.5314 73.0653 15.6689C73.0653 14.8139 73.4744 14.2912 74.1476 14.2912Z" fill="#090909"/>
<path d="M81.2075 17.7823C82.3902 17.7823 83.1155 16.987 83.1155 15.6689C83.1155 14.3584 82.3865 13.5594 81.2075 13.5594C80.0248 13.5594 79.2958 14.3584 79.2958 15.6689C79.2958 16.987 80.0211 17.7823 81.2075 17.7823ZM81.2075 17.0691C80.512 17.0691 80.1215 16.5576 80.1215 15.6689C80.1215 14.7878 80.512 14.2725 81.2075 14.2725C81.8993 14.2725 82.2935 14.7878 82.2935 15.6689C82.2935 16.5538 81.8993 17.0691 81.2075 17.0691Z" fill="#090909"/>
<path d="M84.174 17.7039H84.9736V15.3254C84.9736 14.6907 85.3493 14.2949 85.9406 14.2949C86.532 14.2949 86.8147 14.6197 86.8147 15.2732V17.7039H87.6143V15.0715C87.6143 14.1045 87.1159 13.5594 86.2121 13.5594C85.6022 13.5594 85.2005 13.8319 85.0034 14.2837H84.9439V13.6378H84.174V17.7039Z" fill="#090909"/>
<path d="M91.2971 12.6259V13.6564H90.6537V14.3322H91.2971V16.6285C91.2971 17.4126 91.6505 17.7263 92.5394 17.7263C92.6956 17.7263 92.8443 17.7076 92.9745 17.6852V17.0168C92.8629 17.028 92.7923 17.0355 92.6695 17.0355C92.2716 17.0355 92.0968 16.8488 92.0968 16.4232V14.3322H92.9745V13.6564H92.0968V12.6259H91.2971Z" fill="#090909"/>
<path d="M94.0479 17.7039H94.8475V15.3292C94.8475 14.7131 95.212 14.2986 95.8666 14.2986C96.4319 14.2986 96.7332 14.6272 96.7332 15.2769V17.7039H97.5328V15.079C97.5328 14.112 97.001 13.5631 96.1381 13.5631C95.5282 13.5631 95.1004 13.8357 94.9033 14.2912H94.8401V12.0509H94.0479V17.7039Z" fill="#090909"/>
<path d="M100.418 14.2426C101.009 14.2426 101.396 14.6571 101.414 15.2956H99.3687C99.4133 14.6608 99.8261 14.2426 100.418 14.2426ZM101.411 16.6061C101.262 16.9235 100.931 17.099 100.447 17.099C99.8075 17.099 99.3947 16.6472 99.3687 15.934V15.8892H102.229V15.6092C102.229 14.3322 101.548 13.5594 100.421 13.5594C99.2794 13.5594 98.5542 14.3845 98.5542 15.6839C98.5542 16.9832 99.2645 17.7823 100.425 17.7823C101.351 17.7823 101.998 17.3342 102.18 16.6061H101.411Z" fill="#090909"/>
</svg>
