<svg xmlns="http://www.w3.org/2000/svg" width="154.478" height="44.028" viewBox="0 0 154.478 44.028"><defs><style>.a{fill:#fff7e5;}</style></defs><g transform="translate(-403.353 -73.122)"><path class="a" d="M584.053,134.434s.177-4.181-5.953-4.146h-5.953v8.646H578.1S584.053,139.217,584.053,134.434Z" transform="translate(-97.02 -32.858)"/><path class="a" d="M581.218,103.044s.177-3.508-4.535-3.756h-4.536v8.185h3.862S581.218,107.4,581.218,103.044Z" transform="translate(-97.02 -15.04)"/><path class="a" d="M403.353,117.15h46.722V73.122H403.353Zm12.279-37.828h11.1c10,.921,9.382,8.469,9.382,8.469a7.028,7.028,0,0,1-4.04,6.343c7.158,1.807,6.91,7.9,6.91,7.9,0,8.965-10.63,8.93-10.63,8.93H415.632Z" transform="translate(0)"/><path class="a" d="M457.386,134.434s.177-4.181-5.953-4.146H445.48v8.646h5.953S457.386,139.217,457.386,134.434Z" transform="translate(-24.214 -32.858)"/><path class="a" d="M454.552,103.044s.177-3.508-4.536-3.756H445.48v8.185h3.863S454.552,107.4,454.552,103.044Z" transform="translate(-24.214 -15.04)"/><path class="a" d="M656.769,73.122V117.15h46.722V73.122Zm37.473,35.329a25.228,25.228,0,0,1-20.729,1.311A16.026,16.026,0,0,1,663.8,95.136s-.39-11.525,12.083-15.352c0,0,3.331-1.276,9.319-.709a33.873,33.873,0,0,1,8.752,2.516v5.847a26.662,26.662,0,0,0-12.012-3.579s-11.764-.23-12.3,11.277c0,0-.425,10.586,12.154,11.188,0,0,5.28.638,12.438-3.933Z" transform="translate(-145.66)"/><path class="a" d="M530.061,117.15h46.722V73.122H530.061Zm12.262-37.828h11.1c10,.921,9.382,8.469,9.382,8.469a7.029,7.029,0,0,1-4.04,6.343c7.158,1.807,6.91,7.9,6.91,7.9,0,8.965-10.63,8.93-10.63,8.93H542.323Z" transform="translate(-72.83)"/></g></svg>