<svg xmlns="http://www.w3.org/2000/svg" width="160.596" height="42.015" viewBox="0 0 160.596 42.015"><defs><style>.a{fill:#fff7e5;isolation:isolate;}</style></defs><g transform="translate(-65 -201.601)"><path class="a" d="M216.993,227.94a6.5,6.5,0,0,0-3.152.647,10.349,10.349,0,0,0-4.791,4.783l-.415.747.053-1.328c.029-.73.079-2.094.11-3.03l.056-1.7h-.285c-.365,0-11.8,2.286-12.148,2.428-.225.092-.26.192-.26.743s.029.641.26.689c.143.03.668.132,1.167.228,1.011.194,1.313.351,1.73.9.769,1.018.927,2.815.919,10.422-.007,6.22-.136,9.318-.431,10.286a2.537,2.537,0,0,1-2.122,2c-.362.067-.839.162-1.061.209l-.4.085-.034.8c-.024.56.01.826.115.894.082.052,3.995.083,8.694.068l8.544-.027.033-.895a2.239,2.239,0,0,0-.058-.895,17.284,17.284,0,0,1-3.018-.414c-.964-.4-1.431-1.267-1.632-3.023-.237-2.061-.376-7.185-.312-11.386.066-4.242.067-4.259.333-4.543a5.557,5.557,0,0,1,3.591-1.184,8.062,8.062,0,0,1,3.527.881,4.629,4.629,0,0,0,1.216.465c.155-.059,2.958-7.466,2.958-7.815C220.175,228.46,218.584,227.94,216.993,227.94Z" transform="translate(-74.231 -14.907)"/><path class="a" d="M159.225,240.864c-.6-5.124-2.776-8.874-6.362-10.985a16.049,16.049,0,0,0-14.341-.321,13.94,13.94,0,0,0-6.773,8.012,20.62,20.62,0,0,0,0,11.868,12.941,12.941,0,0,0,3.317,5.572,12.546,12.546,0,0,0,7.118,3.445,31.137,31.137,0,0,0,5.2,0,16.382,16.382,0,0,0,1.885-.412c5.074-1.47,8.539-5.37,9.728-10.953A26.983,26.983,0,0,0,159.225,240.864Zm-12.85,15.35c-3.155.936-5.415-2.069-6.29-8.368a57.814,57.814,0,0,1,0-9.908c.618-5.064,2.181-7.636,4.645-7.64a3.144,3.144,0,0,1,2.594,1.144c2.066,2.082,3.047,6.057,3.031,12.305-.011,4.985-.508,8.125-1.619,10.248A4.7,4.7,0,0,1,146.375,256.214Z" transform="translate(-37.284 -14.955)"/><path class="a" d="M80.266,206.458H83.9c4.175,0,4.858.088,6.337.813,2.143,1.052,3.709,3.134,5.075,6.749.556,1.472.549,1.467,1.786,1.091l.821-.25-.075-5.327c-.042-2.93-.109-5.536-.15-5.79l-.075-.462-15.929-.033c-8.761-.018-16.1,0-16.31.035l-.38.068.033.946.033.947,1.212.145a3.963,3.963,0,0,1,3.071,1.443c1.257,1.833,1.485,4.328,1.483,16.192,0,12.632-.266,15.7-1.481,17.293a3.349,3.349,0,0,1-2.554,1.354c-1.851.343-1.79.3-1.79,1.257,0,.532.049.82.145.859.208.084,20.584.09,20.8.006.278-.106.262-1.612-.02-1.757a10.652,10.652,0,0,0-1.53-.3,10.245,10.245,0,0,1-1.791-.4c-1.335-.581-2.077-2.187-2.356-5.094-.2-2.085-.355-5.926-.355-8.766v-2.606l1.241.038a16.683,16.683,0,0,1,4.562.463c1.2.529,2.164,2,2.666,4.065l.268,1.1.942.034.943.033V216.724l-.942.033-.943.033-.275,1.1c-.533,2.123-1.4,3.428-2.685,4.021a5.146,5.146,0,0,1-2.136.382c-.828.049-1.986.092-2.573.1l-1.068.006v-3.435c0-3.443.184-10.755.3-11.892Z" transform="translate(0 -0.929)"/><path class="a" d="M405.58,244.961c-.971-1.942-2.758-3.271-6.5-4.835-3.057-1.277-4.592-2.162-5.529-3.188a3.2,3.2,0,0,1-.909-2.748,3.673,3.673,0,0,1,1.069-2.6,3.741,3.741,0,0,1,3.715-1.011c2.495.527,4.1,2.256,5.474,5.906.492,1.3.549,1.344,1.433,1.016l.559-.208-.018-1.5c-.012-.826-.053-2.558-.095-3.852l-.074-2.35-.417-.177a23.851,23.851,0,0,0-9.472-1.309,11.1,11.1,0,0,0-7.407,3.2,8.506,8.506,0,0,0-2.482,6.686,7.307,7.307,0,0,0,2.09,5.073c1.234,1.262,2.27,1.86,5.241,3.02,4.795,1.872,6.065,2.982,6.054,5.291a4.078,4.078,0,0,1-2.927,4.042,7.624,7.624,0,0,1-3.287,0c-2.382-.628-4.207-2.692-5.762-6.521l-.4-.981-.469.022a2.457,2.457,0,0,0-.786.174l-.32.152.03,1.673c.017.92.063,2.86.1,4.311l.073,2.637.532.229a31.786,31.786,0,0,0,6.42,1.406c.254.027,1.657.036,3.118.02a12.078,12.078,0,0,0,3.991-.378c3.763-.982,6.2-3.079,7.277-6.263a7.155,7.155,0,0,0,.425-2.731A7.674,7.674,0,0,0,405.58,244.961Z" transform="translate(-180.742 -14.965)"/><path class="a" d="M340.757,229.175c-3.172-1.59-8.071-1.474-11.653.271a13.55,13.55,0,0,0-7.035,8.313,16.478,16.478,0,0,0-.826,6.294,16.848,16.848,0,0,0,.292,3.292c1.338,5.974,5.435,10.035,11.162,11.069a21.669,21.669,0,0,0,5.4.009,14.831,14.831,0,0,0,5.242-2.022c1.615-1.091,3.272-2.731,3.272-3.241,0-.311-.555-1.025-.8-1.025a3.989,3.989,0,0,0-1,.52,8.82,8.82,0,0,1-5.192,1.441,8.254,8.254,0,0,1-6.581-2.586,7.4,7.4,0,0,1-1.577-2.089,14.35,14.35,0,0,1-1.508-6.2l-.032-1.01,8.544-.029,8.544-.03.038-.577a15.182,15.182,0,0,0-.092-1.847C346.426,234.536,344.327,230.964,340.757,229.175ZM332.149,239.7l-2.165.035,0-.467a13.989,13.989,0,0,1,.163-1.506c.722-4.649,2.456-7.44,4.626-7.442,2,0,3.228,2.747,3.483,7.778l.073,1.427-2.009.07C335.218,239.633,333.34,239.681,332.149,239.7Z" transform="translate(-145.016 -14.972)"/><path class="a" d="M267.644,213.65a10.288,10.288,0,0,0-2.621-.123,11.647,11.647,0,0,0-4.85,1.055c-.494.227-.925.415-.958.415s-.029-3.014.01-6.7c.056-5.19.04-6.7-.067-6.7-.376-.006-12.168,2.243-12.3,2.346-.1.076-.137.326-.115.7.038.655-.039.6,1.4.927a3.974,3.974,0,0,1,1.126.418,3.791,3.791,0,0,1,1.155,2.142c.218.836.247,1.434.349,7.09.1,5.774.082,11.711-.076,22.586l-.066,4.518.845.192c1.223.278,4.723.861,5.869.977a43.255,43.255,0,0,0,6.843-.04,13.978,13.978,0,0,0,11.4-8.771,21.321,21.321,0,0,0,1.158-4.7,27.776,27.776,0,0,0-.213-6.505C275.383,218.211,272.092,214.57,267.644,213.65ZM259.417,240.9c-.148-.388-.323-13.921-.252-19.326l.057-4.22.765-.225a6.435,6.435,0,0,1,1.81-.225,3.1,3.1,0,0,1,1.927.435c1.985.981,3.345,3.419,3.979,7.126a34.155,34.155,0,0,1,.051,6.755c-.519,4.033-1.837,7.287-3.59,8.864a4.281,4.281,0,0,1-2.19,1.122,5.547,5.547,0,0,1-1.892.031C259.614,241.2,259.511,241.146,259.417,240.9Z" transform="translate(-102.858 0)"/></g></svg>