<svg xmlns="http://www.w3.org/2000/svg" viewBox="0 0 260.11 69.58"><defs><style>.cls-1{fill:#fff7e5;}</style></defs><g id="Layer_2" data-name="Layer 2"><g id="Layer_1-2" data-name="Layer 1"><path class="cls-1" d="M0,0V69.58H69.58V0ZM32.77,16.81c-1.11-3.52-2.31-4.62-8.46-4.62H19.55c-1.43,0-1.75.32-1.75,1.61v9.94h2.34c4.9,0,6-.88,6.57-4.16h1.2V30.67h-1.2c-.65-3.69-2.5-4.62-6.57-4.62H17.8V36.31h0c0,3.29.87,3.65,4.62,3.79v1.21H7.54V40.1c3.09-.14,4-.5,4-3.79V14.87c0-3.29-.88-3.66-3.88-3.79V9.88H33.88l.19,6.93Zm29.9,0c-1-3.39-2.49-4.62-5.81-4.62H53V36.31c0,3.29.87,3.65,4.43,3.79v1.21H42.25V40.1c3.56-.14,4.44-.5,4.44-3.79V12.19H42.81c-3.32,0-4.8,1.23-5.81,4.62H35.42l.64-6.93H63.61l.63,6.93Z"/><path class="cls-1" d="M87.42,27.32c0,2.16.58,2.4,3,2.5v.77H80.67v-.77c2-.1,2.62-.34,2.62-2.5V13.22c0-2.17-.58-2.41-2.56-2.5V9.93H98l.11,4.56h-.85c-.73-2.31-1.52-3-5.56-3H88.58c-1,0-1.16.21-1.16,1.07v6.53H91c3.22,0,3.92-.58,4.32-2.74h.79v7.31h-.79c-.43-2.44-1.65-3.05-4.32-3.05H87.42v6.75Zm20.38,0c0,2.16.57,2.4,3,2.5v.77H100.62v-.77c2.47-.1,3-.34,3-2.5V13.22c0-2.17-.57-2.41-3-2.5V9.93h10.22v.79c-2.47.09-3,.33-3,2.5ZM132.15,13.8c0-2-.55-2.83-2.8-3.08V9.93h7.3v.79c-2.25.25-2.8,1.07-2.8,3.08V31.1h-1L118.71,14.8V26.74c0,2,.55,2.83,2.8,3.08v.77h-7.3v-.77c2.25-.25,2.8-1.07,2.8-3.08V12.83a4,4,0,0,0-2.8-2.11V9.93h5.62l12.32,14.24Zm11,9.39,3.1-8.18,3.07,8.18ZM158,30.59v-.77c-1.55,0-1.95-.64-2.74-2.59L148,9.44h-1l-7.57,18.43a2.91,2.91,0,0,1-2.53,1.95v.77h6.57v-.77c-1.43,0-2.13-.31-2.13-1.31a18.73,18.73,0,0,1,1.19-3.8H150a18.81,18.81,0,0,1,1.25,3.8c0,1-.76,1.31-2.19,1.31v.77ZM178,13.8c0-2-.55-2.83-2.8-3.08V9.93h7.3v.79c-2.25.25-2.8,1.07-2.8,3.08V31.1h-1L164.6,14.8V26.74c0,2,.54,2.83,2.79,3.08v.77h-7.3v-.77c2.26-.25,2.81-1.07,2.81-3.08V12.83a4,4,0,0,0-2.81-2.11V9.93h5.63L178,24.17V13.8Zm26.1,11.93a9.79,9.79,0,0,1-9.28,5.37c-6.71,0-10.7-4.42-10.7-11A10.75,10.75,0,0,1,195.08,9.44c2.16,0,5.22,1.22,5.68,1.22.61,0,.79-.33,1.29-1.22h1l.43,6.9h-.91c-1.22-3.19-3.37-5.5-7-5.5-4.87,0-7,5.27-7,9.24,0,5.57,2.4,9.31,7.54,9.31,4,0,6.24-3,7.18-4.28Zm10,1.59c0,2.16.58,2.4,3,2.5v.77H207v-.77c2.47-.1,3-.34,3-2.5V13.22c0-2.17-.57-2.41-3-2.5V9.93H217.2v.79c-2.46.09-3,.33-3,2.5Zm11.51-4.13,3.1-8.18,3.07,8.18Zm14.81,7.4v-.77c-1.55,0-1.95-.64-2.74-2.59L230.47,9.44h-1L221.9,27.87a2.91,2.91,0,0,1-2.53,1.95v.77h6.57v-.77c-1.43,0-2.13-.31-2.13-1.31a18.73,18.73,0,0,1,1.19-3.8h7.48a18.8,18.8,0,0,1,1.24,3.8c0,1-.76,1.31-2.18,1.31v.77Zm1.81,0v-.77c2-.09,2.55-.34,2.55-2.5V13.22c0-2.17-.58-2.41-2.55-2.5V9.93h9.54v.79c-2.27.09-2.86.33-2.86,2.5v14.5c0,1.25.37,1.67,2.68,1.67,3.71,0,5.9-.67,7.66-4.31h.8l-1.4,5.51ZM85.21,63.17c2.35-.1,2.92-.34,2.92-2.49V44.8H85.58c-2.4,0-3.35,1-4,3.77h-.91l.49-5.28H99.26l.49,5.28h-.92c-.66-2.8-1.61-3.77-4-3.77H92.27V60.68c0,2.15.57,2.39,2.91,2.49v.77h-10Zm23.84-2.49c0,2.15.58,2.39,3,2.48v.78H101.87v-.78c2.47-.09,3-.33,3-2.48V46.56c0-2.16-.58-2.4-3-2.49v-.79h10.22v.79c-2.46.09-3,.33-3,2.49ZM133.8,43.29h7.12v.78c-2,.09-2.56.33-2.56,2.49V60.68c0,2.15.58,2.39,2.56,2.49v.77h-9.31v-.77c2-.1,2.62-.34,2.62-2.49V46.14h-.06L127.26,64.2h-.94l-6.75-18.06h-.06v14c0,2,.55,2.82,2.8,3.07v.77H115v-.77c2.25-.25,2.8-1.07,2.8-3.07V46.05c0-1.43-.61-2-2.8-2v-.78h7.51L128,57.63Zm10,20.65v-.77c2-.1,2.55-.34,2.55-2.49V46.56c0-2.16-.58-2.4-2.55-2.49v-.78h17.27l.12,4.55h-.85c-.73-2.31-1.52-3-5.56-3H151.7c-.95,0-1.16.21-1.16,1.06v6.55h3.53c3.22,0,3.92-.58,4.32-2.74h.79V57h-.79c-.43-2.43-1.65-3-4.32-3h-3.53v7.16c0,1.23.37,1.66,4,1.66s5.9-.67,7.67-4.32H163l-1.4,5.52Zm21.84-6.49h.8C167.37,60.19,170,63,173,63a3.26,3.26,0,0,0,3.55-3.43c0-4.75-10.7-5.63-10.7-11.52,0-2.86,2.77-5.29,5.93-5.29s4.19,1.08,5.57,1.08c.57,0,.94-.44,1.09-1.08h.79v6.56h-.79c-.85-3-3-5.17-5.78-5.17a2.82,2.82,0,0,0-3.16,2.9c0,4.22,10.7,4.35,10.7,11.61,0,3.24-2.67,5.74-6.39,5.74s-4.58-1.27-6-1.27c-.54,0-.91.36-1,1h-1.1V57.45Z"/></g></g></svg>