<svg width="135" height="46" viewBox="0 0 135 46" fill="none" xmlns="http://www.w3.org/2000/svg">
<rect width="135" height="46" rx="7.59494" fill="white"/>
<g filter="url(#filter0_ii_504_132)">
<path d="M13.4739 12.7414C13.1822 13.0514 13.0098 13.5324 13.0098 14.1553V36.4113C13.0098 37.0352 13.1822 37.5152 13.4739 37.8252L13.5481 37.8976L25.967 25.4302V25.2833V25.1364L13.5481 12.668L13.4739 12.7414Z" fill="url(#paint0_linear_504_132)"/>
<path d="M30.1058 29.5871L25.9668 25.43V25.283V25.1361L30.1068 20.98L30.2 21.0333L35.1048 23.8309C36.5052 24.6299 36.5052 25.9372 35.1048 26.7372L30.2 29.5348L30.1058 29.5871Z" fill="url(#paint1_linear_504_132)"/>
<g filter="url(#filter1_i_504_132)">
<path d="M30.2002 29.5338L25.966 25.2831L13.4739 37.825C13.935 38.3161 14.6978 38.3764 15.5569 37.8874L30.2002 29.5338Z" fill="url(#paint2_linear_504_132)"/>
</g>
<path d="M30.2002 21.0325L15.5569 12.68C14.6978 12.1899 13.935 12.2513 13.4739 12.7424L25.967 25.2843L30.2002 21.0325Z" fill="url(#paint3_linear_504_132)"/>
</g>
<path d="M67.6532 26.5009C65.4264 26.5009 63.6115 28.1938 63.6115 30.5254C63.6115 32.8428 65.4264 34.5499 67.6532 34.5499C69.8809 34.5499 71.6958 32.8428 71.6958 30.5254C71.6949 28.1938 69.8799 26.5009 67.6532 26.5009ZM67.6532 32.9659C66.4328 32.9659 65.381 31.96 65.381 30.5264C65.381 29.0776 66.4338 28.0869 67.6532 28.0869C68.8735 28.0869 69.9254 29.0776 69.9254 30.5264C69.9254 31.959 68.8735 32.9659 67.6532 32.9659ZM58.8352 26.5009C56.6084 26.5009 54.7935 28.1938 54.7935 30.5254C54.7935 32.8428 56.6084 34.5499 58.8352 34.5499C61.0629 34.5499 62.8778 32.8428 62.8778 30.5254C62.8778 28.1938 61.0629 26.5009 58.8352 26.5009ZM58.8352 32.9659C57.6148 32.9659 56.563 31.96 56.563 30.5264C56.563 29.0776 57.6157 28.0869 58.8352 28.0869C60.0555 28.0869 61.1074 29.0776 61.1074 30.5264C61.1083 31.959 60.0555 32.9659 58.8352 32.9659ZM48.3471 27.7368V29.4438H52.4351C52.313 30.4043 51.993 31.1055 51.5045 31.5928C50.9099 32.1871 49.9793 32.8428 48.3471 32.8428C45.8306 32.8428 43.8633 30.815 43.8633 28.2998C43.8633 25.7846 45.8306 23.7568 48.3471 23.7568C49.7047 23.7568 50.696 24.2904 51.4278 24.9765L52.633 23.7719C51.6105 22.7963 50.2538 22.0497 48.3471 22.0497C44.9 22.0497 42.002 24.8544 42.002 28.2998C42.002 31.7452 44.9 34.5499 48.3471 34.5499C50.2074 34.5499 51.6115 33.9396 52.7087 32.7965C53.8373 31.6685 54.1885 30.0826 54.1885 28.8023C54.1885 28.4067 54.1582 28.0405 54.0967 27.7358L48.3471 27.7368ZM91.2424 29.0625C90.9072 28.1635 89.8848 26.5009 87.7953 26.5009C85.721 26.5009 83.9969 28.1323 83.9969 30.5254C83.9969 32.7813 85.7058 34.5499 87.9932 34.5499C89.8384 34.5499 90.9063 33.422 91.3494 32.7662L89.9766 31.8511C89.5193 32.5221 88.8935 32.964 87.9932 32.964C87.0937 32.964 86.4528 32.5523 86.041 31.7442L91.4251 29.5186L91.2424 29.0625ZM85.7512 30.4043C85.7058 28.8486 86.9565 28.0566 87.8568 28.0566C88.5584 28.0566 89.1529 28.4077 89.3517 28.9101L85.7512 30.4043ZM81.3744 34.3067H83.143V22.4774H81.3744V34.3067ZM78.4755 27.4008H78.4149C78.0182 26.9277 77.2551 26.5009 76.2951 26.5009C74.2814 26.5009 72.4362 28.2695 72.4362 30.5415C72.4362 32.7974 74.2814 34.5509 76.2951 34.5509C77.2561 34.5509 78.0182 34.1241 78.4149 33.6368H78.4755V34.2159C78.4755 35.7555 77.6518 36.5787 76.3254 36.5787C75.2423 36.5787 74.5711 35.8018 74.2965 35.1461L72.7562 35.7867C73.1983 36.8531 74.3723 38.1647 76.3254 38.1647C78.3997 38.1647 80.1541 36.9449 80.1541 33.9717V26.746H78.4764L78.4755 27.4008ZM76.4475 32.9659C75.2272 32.9659 74.2056 31.9439 74.2056 30.5415C74.2056 29.1231 75.2272 28.0869 76.4475 28.0869C77.6518 28.0869 78.5976 29.1231 78.5976 30.5415C78.5976 31.9439 77.6518 32.9659 76.4475 32.9659ZM99.5302 22.4774H95.2973V34.3067H97.063V29.8252H99.5293C101.487 29.8252 103.413 28.4086 103.413 26.1518C103.413 23.8949 101.488 22.4774 99.5302 22.4774ZM99.5757 28.1787H97.063V24.1239H99.5757C100.896 24.1239 101.646 25.2168 101.646 26.1518C101.646 27.0678 100.896 28.1787 99.5757 28.1787ZM110.494 26.4801C109.215 26.4801 107.89 27.0432 107.342 28.2913L108.91 28.9452C109.245 28.2913 109.87 28.0774 110.524 28.0774C111.438 28.0774 112.366 28.6253 112.381 29.599V29.7211C112.061 29.5385 111.376 29.265 110.539 29.265C108.849 29.265 107.128 30.1933 107.128 31.9278C107.128 33.5109 108.514 34.53 110.067 34.53C111.254 34.53 111.909 33.9973 112.32 33.3728H112.38V34.2859H114.087V29.7504C114.087 27.6516 112.518 26.4801 110.494 26.4801ZM110.28 32.963C109.702 32.963 108.895 32.6735 108.895 31.9581C108.895 31.0449 109.9 30.6948 110.768 30.6948C111.544 30.6948 111.91 30.8623 112.381 31.0904C112.244 32.1871 111.3 32.963 110.28 32.963ZM120.299 26.7385L118.274 31.8672H118.213L116.112 26.7385H114.209L117.36 33.9064L115.563 37.894H117.406L122.264 26.7385H120.299ZM104.388 34.3067H106.154V22.4774H104.388V34.3067Z" fill="#090909"/>
<path d="M48.1265 15.4803C48.1265 16.2589 47.8919 16.8787 47.4218 17.3414C46.8883 17.8914 46.1921 18.1664 45.337 18.1664C44.5179 18.1664 43.8208 17.8877 43.2485 17.3302C42.6753 16.7718 42.3887 16.0806 42.3887 15.2555C42.3887 14.4295 42.6753 13.7382 43.2485 13.1808C43.8208 12.6223 44.5179 12.3436 45.337 12.3436C45.7438 12.3436 46.1326 12.4217 46.5015 12.5768C46.8713 12.7329 47.1674 12.9401 47.3887 13.1993L46.8902 13.6899C46.5147 13.2486 45.9973 13.0284 45.3361 13.0284C44.7383 13.0284 44.2218 13.2346 43.7858 13.6472C43.3497 14.0597 43.1321 14.5958 43.1321 15.2546C43.1321 15.9133 43.3497 16.4494 43.7858 16.862C44.2218 17.2745 44.7383 17.4807 45.3361 17.4807C45.9699 17.4807 46.4986 17.2736 46.9214 16.8582C47.1957 16.5879 47.3547 16.2116 47.3972 15.7293H45.3361V15.0594H48.0858C48.1142 15.2053 48.1265 15.3456 48.1265 15.4803Z" fill="#090909"/>
<path d="M52.4872 13.152H49.903V14.9192H52.2337V15.5891H49.903V17.3563H52.4872V18.042H49.1737V12.4672H52.4872V13.152Z" fill="#090909"/>
<path d="M55.5622 18.042H54.8329V13.152H53.2476V12.4672H57.1476V13.152H55.5622V18.042Z" fill="#090909"/>
<path d="M59.9691 18.042V12.4672H60.6984V18.042H59.9691Z" fill="#090909"/>
<path d="M63.9326 18.042H63.2033V13.152H61.618V12.4672H65.518V13.152H63.9326V18.042Z" fill="#090909"/>
<path d="M72.9005 17.3219C72.3424 17.885 71.6491 18.1665 70.8195 18.1665C69.99 18.1665 69.2966 17.885 68.7395 17.3219C68.1814 16.7589 67.9033 16.0695 67.9033 15.2546C67.9033 14.4398 68.1814 13.7504 68.7395 13.1873C69.2966 12.6243 69.99 12.3418 70.8195 12.3418C71.6443 12.3418 72.3368 12.6252 72.8967 13.191C73.4567 13.7569 73.7367 14.4444 73.7367 15.2546C73.7367 16.0695 73.4576 16.7589 72.9005 17.3219ZM69.2777 16.8546C69.6977 17.2727 70.2113 17.4808 70.8195 17.4808C71.4277 17.4808 71.9423 17.2717 72.3613 16.8546C72.7813 16.4365 72.9923 15.9031 72.9923 15.2546C72.9923 14.6061 72.7813 14.0728 72.3613 13.6547C71.9423 13.2365 71.4277 13.0284 70.8195 13.0284C70.2113 13.0284 69.6977 13.2375 69.2777 13.6547C68.8587 14.0728 68.6477 14.6061 68.6477 15.2546C68.6477 15.9031 68.8587 16.4365 69.2777 16.8546Z" fill="#090909"/>
<path d="M74.7602 18.042V12.4672H75.6474L78.4057 16.8035H78.4369L78.4057 15.7294V12.4672H79.135V18.042H78.3735L75.4876 13.4949H75.4564L75.4876 14.5689V18.042H74.7602Z" fill="#090909"/>
<path d="M48.1265 15.4803C48.1265 16.2589 47.8919 16.8787 47.4218 17.3414C46.8883 17.8914 46.1921 18.1664 45.337 18.1664C44.5179 18.1664 43.8208 17.8877 43.2485 17.3302C42.6753 16.7718 42.3887 16.0806 42.3887 15.2555C42.3887 14.4295 42.6753 13.7382 43.2485 13.1808C43.8208 12.6223 44.5179 12.3436 45.337 12.3436C45.7438 12.3436 46.1326 12.4217 46.5015 12.5768C46.8713 12.7329 47.1674 12.9401 47.3887 13.1993L46.8902 13.6899C46.5147 13.2486 45.9973 13.0284 45.3361 13.0284C44.7383 13.0284 44.2218 13.2346 43.7858 13.6472C43.3497 14.0597 43.1321 14.5958 43.1321 15.2546C43.1321 15.9133 43.3497 16.4494 43.7858 16.862C44.2218 17.2745 44.7383 17.4807 45.3361 17.4807C45.9699 17.4807 46.4986 17.2736 46.9214 16.8582C47.1957 16.5879 47.3547 16.2116 47.3972 15.7293H45.3361V15.0594H48.0858C48.1142 15.2053 48.1265 15.3456 48.1265 15.4803Z" stroke="white" stroke-width="0.0388313" stroke-miterlimit="10"/>
<path d="M52.4872 13.152H49.903V14.9192H52.2337V15.5891H49.903V17.3563H52.4872V18.042H49.1737V12.4672H52.4872V13.152Z" stroke="white" stroke-width="0.0388313" stroke-miterlimit="10"/>
<path d="M55.5622 18.042H54.8329V13.152H53.2476V12.4672H57.1476V13.152H55.5622V18.042Z" stroke="white" stroke-width="0.0388313" stroke-miterlimit="10"/>
<path d="M59.9691 18.042V12.4672H60.6984V18.042H59.9691Z" stroke="white" stroke-width="0.0388313" stroke-miterlimit="10"/>
<path d="M63.9326 18.042H63.2033V13.152H61.618V12.4672H65.518V13.152H63.9326V18.042Z" stroke="white" stroke-width="0.0388313" stroke-miterlimit="10"/>
<path d="M72.9005 17.3219C72.3424 17.885 71.6491 18.1665 70.8195 18.1665C69.99 18.1665 69.2966 17.885 68.7395 17.3219C68.1814 16.7589 67.9033 16.0695 67.9033 15.2546C67.9033 14.4398 68.1814 13.7504 68.7395 13.1873C69.2966 12.6243 69.99 12.3418 70.8195 12.3418C71.6443 12.3418 72.3368 12.6252 72.8967 13.191C73.4567 13.7569 73.7367 14.4444 73.7367 15.2546C73.7367 16.0695 73.4576 16.7589 72.9005 17.3219ZM69.2777 16.8546C69.6977 17.2727 70.2113 17.4808 70.8195 17.4808C71.4277 17.4808 71.9423 17.2717 72.3613 16.8546C72.7813 16.4365 72.9923 15.9031 72.9923 15.2546C72.9923 14.6061 72.7813 14.0728 72.3613 13.6547C71.9423 13.2365 71.4277 13.0284 70.8195 13.0284C70.2113 13.0284 69.6977 13.2375 69.2777 13.6547C68.8587 14.0728 68.6477 14.6061 68.6477 15.2546C68.6477 15.9031 68.8587 16.4365 69.2777 16.8546Z" stroke="white" stroke-width="0.0388313" stroke-miterlimit="10"/>
<path d="M74.7602 18.042V12.4672H75.6474L78.4057 16.8035H78.4369L78.4057 15.7294V12.4672H79.135V18.042H78.3735L75.4876 13.4949H75.4564L75.4876 14.5689V18.042H74.7602Z" stroke="white" stroke-width="0.0388313" stroke-miterlimit="10"/>
<defs>
<filter id="filter0_ii_504_132" x="13.0098" y="12.3418" width="23.1453" height="25.8833" filterUnits="userSpaceOnUse" color-interpolation-filters="sRGB">
<feFlood flood-opacity="0" result="BackgroundImageFix"/>
<feBlend mode="normal" in="SourceGraphic" in2="BackgroundImageFix" result="shape"/>
<feColorMatrix in="SourceAlpha" type="matrix" values="0 0 0 0 0 0 0 0 0 0 0 0 0 0 0 0 0 0 127 0" result="hardAlpha"/>
<feOffset dy="-0.150949"/>
<feComposite in2="hardAlpha" operator="arithmetic" k2="-1" k3="1"/>
<feColorMatrix type="matrix" values="0 0 0 0 0 0 0 0 0 0 0 0 0 0 0 0 0 0 0.12 0"/>
<feBlend mode="normal" in2="shape" result="effect1_innerShadow_504_132"/>
<feColorMatrix in="SourceAlpha" type="matrix" values="0 0 0 0 0 0 0 0 0 0 0 0 0 0 0 0 0 0 127 0" result="hardAlpha"/>
<feOffset dy="0.150949"/>
<feComposite in2="hardAlpha" operator="arithmetic" k2="-1" k3="1"/>
<feColorMatrix type="matrix" values="0 0 0 0 1 0 0 0 0 1 0 0 0 0 1 0 0 0 0.25 0"/>
<feBlend mode="normal" in2="effect1_innerShadow_504_132" result="effect2_innerShadow_504_132"/>
</filter>
<filter id="filter1_i_504_132" x="13.4739" y="25.2831" width="16.7263" height="12.942" filterUnits="userSpaceOnUse" color-interpolation-filters="sRGB">
<feFlood flood-opacity="0" result="BackgroundImageFix"/>
<feBlend mode="normal" in="SourceGraphic" in2="BackgroundImageFix" result="shape"/>
<feColorMatrix in="SourceAlpha" type="matrix" values="0 0 0 0 0 0 0 0 0 0 0 0 0 0 0 0 0 0 127 0" result="hardAlpha"/>
<feOffset dy="-0.150949"/>
<feComposite in2="hardAlpha" operator="arithmetic" k2="-1" k3="1"/>
<feColorMatrix type="matrix" values="0 0 0 0 0 0 0 0 0 0 0 0 0 0 0 0 0 0 0.08 0"/>
<feBlend mode="normal" in2="shape" result="effect1_innerShadow_504_132"/>
</filter>
<linearGradient id="paint0_linear_504_132" x1="24.8661" y1="13.9198" x2="7.97806" y2="30.7423" gradientUnits="userSpaceOnUse">
<stop stop-color="#00A0FF"/>
<stop offset="0.0066" stop-color="#00A1FF"/>
<stop offset="0.2601" stop-color="#00BEFF"/>
<stop offset="0.5122" stop-color="#00D2FF"/>
<stop offset="0.7604" stop-color="#00DFFF"/>
<stop offset="1" stop-color="#00E3FF"/>
</linearGradient>
<linearGradient id="paint1_linear_504_132" x1="36.9277" y1="25.283" x2="12.6733" y2="25.283" gradientUnits="userSpaceOnUse">
<stop stop-color="#FFE000"/>
<stop offset="0.4087" stop-color="#FFBD00"/>
<stop offset="0.7754" stop-color="#FFA500"/>
<stop offset="1" stop-color="#FF9C00"/>
</linearGradient>
<linearGradient id="paint2_linear_504_132" x1="27.9008" y1="27.5915" x2="4.99839" y2="50.4048" gradientUnits="userSpaceOnUse">
<stop stop-color="#FF3A44"/>
<stop offset="1" stop-color="#C31162"/>
</linearGradient>
<linearGradient id="paint3_linear_504_132" x1="10.3277" y1="5.3336" x2="20.5542" y2="15.5204" gradientUnits="userSpaceOnUse">
<stop stop-color="#32A071"/>
<stop offset="0.0685" stop-color="#2DA771"/>
<stop offset="0.4762" stop-color="#15CF74"/>
<stop offset="0.8009" stop-color="#06E775"/>
<stop offset="1" stop-color="#00F076"/>
</linearGradient>
</defs>
</svg>
