<svg width="24" height="24" viewBox="0 0 24 24" fill="none" xmlns="http://www.w3.org/2000/svg">
<path d="M20 5C20 4.448 19.552 4 19 4C18.448 4 18 4.448 18 5C18 5.552 18.448 6 19 6C19.552 6 20 5.552 20 5Z" fill="#FEFAF0"/>
<path fill-rule="evenodd" clip-rule="evenodd" d="M6.99805 0C3.13905 0 0 3.14195 0 7.00195V17.002C0 20.861 3.14195 24 7.00195 24H17.002C20.861 24 24 20.858 24 16.998V6.99805C24 3.13905 20.858 0 16.998 0H6.99805ZM20 5C20 4.448 19.552 4 19 4C18.448 4 18 4.448 18 5C18 5.552 18.448 6 19 6C19.552 6 20 5.552 20 5ZM18 12C18 8.691 15.309 6 12 6C11.1823 6 10.4024 6.16432 9.69146 6.46167C7.52539 7.36766 6 9.50868 6 12C6 15.309 8.691 18 12 18C12.8177 18 13.5976 17.8357 14.3085 17.5383C16.4746 16.6323 18 14.4913 18 12Z" fill="#143CFF"/>
<path fill-rule="evenodd" clip-rule="evenodd" d="M12 6C15.309 6 18 8.691 18 12C18 14.4913 16.4746 16.6323 14.3085 17.5383C13.5976 17.8357 12.8177 18 12 18C8.691 18 6 15.309 6 12C6 9.50868 7.52539 7.36766 9.69146 6.46167C10.4024 6.16432 11.1823 6 12 6ZM9.17157 9.17157C10.017 8.32617 10.9391 8 12 8C13.0609 8 14.0783 8.42143 14.8284 9.17157C15.5786 9.92172 16 10.9391 16 12C16 13.0609 15.5786 14.0783 14.8284 14.8284C14.0783 15.5786 13.0609 16 12 16C10.9391 16 9.92172 15.5786 9.17157 14.8284C8.42143 14.0783 8 13.0609 8 12C8 10.9391 8.32617 10.017 9.17157 9.17157Z" fill="#FEFAF0"/>
<path fill-rule="evenodd" clip-rule="evenodd" d="M19 4C19.552 4 20 4.448 20 5C20 5.552 19.552 6 19 6C18.448 6 18 5.552 18 5C18 4.448 18.448 4 19 4Z" fill="#FEFAF0"/>
<path d="M12 8C10.9391 8 10.017 8.32617 9.17157 9.17157C8.32617 10.017 8 10.9391 8 12C8 13.0609 8.42143 14.0783 9.17157 14.8284C9.92172 15.5786 10.9391 16 12 16C13.0609 16 14.0783 15.5786 14.8284 14.8284C15.5786 14.0783 16 13.0609 16 12C16 10.9391 15.5786 9.92172 14.8284 9.17157C14.0783 8.42143 13.0609 8 12 8Z" fill="#143CFF"/>
</svg>
