<svg width="16" height="18" viewBox="0 0 16 18" fill="none" xmlns="http://www.w3.org/2000/svg">
<g id="Vector">
<path d="M10.9574 0.00102468C9.90051 0.0699308 8.76941 0.677431 8.06922 1.49727C7.45636 2.21868 6.94249 3.27759 7.13756 4.37727C6.96287 4.32524 6.8042 4.31962 6.6135 4.25352C6.09381 4.07493 5.49988 3.88227 4.76183 3.88227C3.29592 3.88227 1.79508 4.72462 0.848863 6.13227C-0.528244 8.17696 -0.251658 11.7756 1.83875 14.851C2.20705 15.391 2.63648 15.9802 3.16636 16.4485C3.69624 16.9168 4.33676 17.274 5.08791 17.281C5.72988 17.2881 6.17678 17.0813 6.57856 16.9098C6.98034 16.7382 7.35446 16.5863 8.05757 16.5835C8.06194 16.5835 8.06485 16.5835 8.06922 16.5835C8.76941 16.5779 9.13189 16.727 9.52493 16.8985C9.91798 17.0701 10.3605 17.2866 11.0039 17.281C11.7696 17.2754 12.4204 16.8704 12.9604 16.3698C13.5005 15.8691 13.9445 15.2546 14.3113 14.716C14.8368 13.9426 15.0479 13.5207 15.4526 12.6573C15.4948 12.5673 15.4963 12.4632 15.4555 12.3718C15.4162 12.2804 15.3391 12.2087 15.243 12.1735C13.9183 11.6898 13.1628 10.5577 13.0536 9.36102C12.9444 8.16431 13.4685 6.93243 14.7888 6.23352C14.8863 6.1829 14.9548 6.09431 14.978 5.99024C14.9999 5.88618 14.9737 5.77649 14.9053 5.69352C13.9576 4.55587 12.6242 3.88227 11.3184 3.88227C10.4857 3.88227 9.8743 4.07212 9.37354 4.25352C9.29056 4.28446 9.22942 4.28165 9.15227 4.30977C9.66031 4.05102 10.1087 3.69243 10.4449 3.27478C11.0563 2.51681 11.528 1.43821 11.3533 0.304775C11.3242 0.11915 11.151 -0.0130378 10.9574 0.00102468ZM10.5614 0.856025C10.5367 1.58306 10.279 2.29462 9.85101 2.82477C9.40265 3.38165 8.64859 3.76696 7.91782 3.88227C7.93092 3.18337 8.21624 2.45915 8.6515 1.94727C9.1086 1.4129 9.86557 1.02759 10.5614 0.856025ZM4.76183 4.60227C5.36304 4.60227 5.84488 4.75274 6.35729 4.92852C6.86971 5.10431 7.40978 5.31102 8.04592 5.31102C8.66751 5.31102 9.15955 5.1029 9.64139 4.92852C10.1232 4.75415 10.6036 4.60227 11.3184 4.60227C12.2515 4.60227 13.2603 5.07056 14.0551 5.88477C12.7828 6.75243 12.1874 8.10524 12.3083 9.41727C12.4291 10.7434 13.2559 12.002 14.6141 12.6573C14.6122 12.6614 14.6102 12.6655 14.6083 12.6695C14.3175 13.2815 14.1236 13.6895 13.6941 14.3223C13.3375 14.8468 12.9138 15.4206 12.448 15.8523C11.9822 16.284 11.4887 16.5568 10.9923 16.561C10.5134 16.5652 10.2411 16.4274 9.82772 16.246C9.4143 16.0646 8.88005 15.8565 8.05757 15.8635C7.23655 15.8677 6.69502 16.0674 6.27577 16.246C5.85653 16.4246 5.5814 16.5652 5.09955 16.561C4.59005 16.5568 4.11695 16.3177 3.66713 15.9198C3.21731 15.5218 2.81117 14.979 2.45597 14.4573C0.499491 11.5773 0.342274 8.19384 1.46609 6.52602C2.29002 5.30118 3.59871 4.60227 4.76183 4.60227Z" fill="#143CFF"/>
<path d="M4.76183 4.60227C5.36304 4.60227 5.84488 4.75274 6.35729 4.92852C6.86971 5.10431 7.40978 5.31102 8.04592 5.31102C8.66751 5.31102 9.15955 5.1029 9.64139 4.92852C10.1232 4.75415 10.6036 4.60227 11.3184 4.60227C12.2515 4.60227 13.2603 5.07056 14.0551 5.88477C12.7828 6.75243 12.1874 8.10524 12.3083 9.41727C12.4291 10.7434 13.2559 12.002 14.6141 12.6573L14.6083 12.6695C14.3175 13.2815 14.1236 13.6895 13.6941 14.3223C13.3375 14.8468 12.9138 15.4206 12.448 15.8523C11.9822 16.284 11.4887 16.5568 10.9923 16.561C10.5134 16.5652 10.2411 16.4274 9.82772 16.246C9.4143 16.0646 8.88005 15.8565 8.05757 15.8635C7.23655 15.8677 6.69502 16.0674 6.27577 16.246C5.85653 16.4246 5.5814 16.5652 5.09955 16.561C4.59005 16.5568 4.11695 16.3177 3.66713 15.9198C3.21731 15.5218 2.81117 14.979 2.45597 14.4573C0.499491 11.5773 0.342274 8.19384 1.46609 6.52602C2.29002 5.30118 3.59871 4.60227 4.76183 4.60227Z" fill="#143CFF"/>
<path d="M10.5614 0.856025C10.5367 1.58306 10.279 2.29462 9.85101 2.82477C9.40265 3.38165 8.64859 3.76696 7.91782 3.88227C7.93092 3.18337 8.21624 2.45915 8.6515 1.94727C9.1086 1.4129 9.86557 1.02759 10.5614 0.856025Z" fill="#143CFF"/>
</g>
</svg>
