<svg width="25" height="25" viewBox="0 0 25 25" fill="none" xmlns="http://www.w3.org/2000/svg">
<g id="Vector">
<path d="M25 12.5C25 19.4036 19.4036 25 12.5 25C5.59644 25 0 19.4036 0 12.5C0 5.59644 5.59644 0 12.5 0C19.4036 0 25 5.59644 25 12.5Z" fill="#143CFF"/>
<path d="M6.25021 14.2513H9.47157V20.6304H13.1812V14.2513H16.551L17.0796 10.8281H13.1799V8.95703C13.1799 7.53516 13.6447 6.27344 14.9755 6.27344H17.1135V3.28646L17.0938 3.2838C16.7098 3.23192 15.9185 3.125 14.4429 3.125C11.3088 3.125 9.47157 4.77995 9.47157 8.55078V10.8281H6.25021V14.2513Z" fill="#FEFAF0"/>
</g>
</svg>
