<svg width="50" height="36" viewBox="0 0 50 36" fill="none" xmlns="http://www.w3.org/2000/svg">
<path fill-rule="evenodd" clip-rule="evenodd" d="M11.2534 0.0974155C7.90363 0.702803 4.58659 3.48073 2.47916 7.44608C0.526206 11.1207 -0.4146 17.0308 0.173558 21.9285C0.880263 27.8139 2.72295 31.1579 6.7983 33.9512C8.82295 35.339 10.0276 35.6945 13.0253 35.7884C15.8099 35.8758 16.549 35.7368 18.0862 34.8364C19.5664 33.9696 20.9809 32.404 21.715 30.8203C22.3888 29.3665 22.5102 27.0056 21.9946 25.3849C21.0813 22.5145 19.1755 20.4907 16.6277 19.6858C15.6656 19.3818 14.9629 19.2956 13.4459 19.2956C11.5495 19.2956 11.4648 19.3128 10.1872 19.9557C9.46571 20.3186 8.55943 20.8955 8.17314 21.2375C7.5575 21.7826 7.45569 21.8213 7.34877 21.5504C7.28165 21.3803 7.22123 19.864 7.21436 18.1809C7.20239 15.2081 7.49004 12.8721 7.92547 12.407C8.01196 12.3146 8.08277 12.1371 8.08277 12.0124C8.08277 11.5895 9.37605 9.74913 10.3607 8.77093C11.8634 7.27824 13.4585 6.5823 15.8592 6.37201C17.1746 6.2567 17.3767 6.18967 17.8105 5.7233C19.5287 3.87671 18.3772 1.14247 15.5321 0.312653C14.5671 0.0312701 12.261 -0.0847491 11.2534 0.0974155ZM39.2609 0.0346307C34.6406 0.875948 30.8724 4.67081 28.9027 10.4665C28.0796 12.8882 27.7876 15.0222 27.7787 18.6766C27.7664 23.8344 28.465 26.9076 30.3317 29.9072C31.4153 31.6487 33.8145 33.7848 35.874 34.8419C37.7621 35.8109 42.2903 36.1777 44.1075 35.5086C45.8357 34.8723 46.411 34.5113 47.5399 33.3547C50.2543 30.5734 50.7451 27.0396 48.8996 23.5616C47.3995 20.7349 44.6958 19.2141 41.1612 19.2093C39.0168 19.2063 37.2812 19.8782 35.7739 21.2947L35.1933 21.8403L35.0253 21.3965C34.7662 20.7123 34.8194 15.4083 35.0986 14.0783C35.3968 12.6581 35.6985 11.927 36.5335 10.6014C38.1852 7.97878 40.3458 6.63129 43.3123 6.37343C45.0657 6.22098 45.2181 6.16155 45.674 5.45306C46.232 4.58574 46.3715 3.83409 46.1369 2.95899C45.8631 1.93834 45.21 1.25089 43.9327 0.638957C43.0231 0.203 42.5327 0.0912255 41.26 0.0296787C40.4027 -0.0117063 39.5032 -0.00958402 39.2609 0.0346307Z" fill="#FC9783"/>
</svg>
