<svg width="16" height="18" viewBox="0 0 16 18" fill="none" xmlns="http://www.w3.org/2000/svg">
<path id="Vector" d="M3.9183 8.00028e-05C3.85569 0.00147042 3.79466 0.0192926 3.74173 0.0516364C3.68881 0.0839803 3.646 0.129627 3.61788 0.183683C3.58976 0.237739 3.5774 0.298168 3.58212 0.358493C3.58684 0.418817 3.60847 0.476764 3.64468 0.526122L4.66503 1.9506C3.68534 2.67586 2.99917 3.75327 2.81573 4.98966H12.3668C12.1834 3.75327 11.4972 2.67586 10.5175 1.9506L11.5379 0.526122C11.5746 0.476043 11.5963 0.417144 11.6006 0.355915C11.6049 0.294686 11.5916 0.233503 11.5622 0.179107C11.5328 0.12471 11.4884 0.0792115 11.4339 0.0476232C11.3795 0.0160349 11.317 -0.000417011 11.2535 8.00028e-05C11.1975 0.000578146 11.1425 0.0142337 11.0931 0.0398679C11.0438 0.065502 11.0017 0.102345 10.9704 0.147215L9.942 1.58472C9.24636 1.20815 8.4462 0.989663 7.59129 0.989663C6.73638 0.989663 5.93621 1.20815 5.24058 1.58472L4.21214 0.147215C4.17985 0.10087 4.13602 0.0631079 4.08467 0.0373983C4.03333 0.0116887 3.97612 -0.00114374 3.9183 8.00028e-05ZM5.52094 2.323C5.90188 2.323 6.21106 2.62166 6.21106 2.98966C6.21106 3.35766 5.90188 3.65633 5.52094 3.65633C5.13999 3.65633 4.83082 3.35766 4.83082 2.98966C4.83082 2.62166 5.13999 2.323 5.52094 2.323ZM9.66164 2.323C10.0426 2.323 10.3518 2.62166 10.3518 2.98966C10.3518 3.35766 10.0426 3.65633 9.66164 3.65633C9.2807 3.65633 8.97152 3.35766 8.97152 2.98966C8.97152 2.62166 9.2807 2.323 9.66164 2.323ZM0.690117 6.323C0.309173 6.323 0 6.62166 0 6.98966V12.323C0 12.691 0.309173 12.9897 0.690117 12.9897C1.07106 12.9897 1.38023 12.691 1.38023 12.323V6.98966C1.38023 6.62166 1.07106 6.323 0.690117 6.323ZM2.76047 6.323V12.9897C2.76047 13.7263 3.37812 14.323 4.1407 14.323V16.6563C4.1407 17.2083 4.60446 17.6563 5.17588 17.6563C5.7473 17.6563 6.21106 17.2083 6.21106 16.6563V14.323H8.97152V16.6563C8.97152 17.2083 9.43528 17.6563 10.0067 17.6563C10.5781 17.6563 11.0419 17.2083 11.0419 16.6563V14.323C11.8045 14.323 12.4221 13.7263 12.4221 12.9897V6.323H2.76047ZM14.4925 6.323C14.1115 6.323 13.8023 6.62166 13.8023 6.98966V12.323C13.8023 12.691 14.1115 12.9897 14.4925 12.9897C14.8734 12.9897 15.1826 12.691 15.1826 12.323V6.98966C15.1826 6.62166 14.8734 6.323 14.4925 6.323Z" fill="#143CFF"/>
</svg>
