<svg width="704" height="602" viewBox="0 0 704 602" fill="none" xmlns="http://www.w3.org/2000/svg">
<path fill-rule="evenodd" clip-rule="evenodd" d="M136.902 431.789C167.59 460.74 194.769 490.484 227.826 516.706C266.633 547.489 298.835 592.032 348.269 599.453C399.317 607.116 457.265 592.264 496.506 557.039C534.884 522.589 540.616 475.421 572.042 434.521C611.137 383.641 677.536 355.703 697.745 295.133C717.215 236.781 683.096 173.505 650.159 123.278C618.071 74.3447 569.702 37.6151 515.015 16.4798C463.833 -3.30065 406.733 -2.95308 352.085 8.07933C302.712 18.0468 265.999 57.6515 218.925 76.2548C159.936 99.5669 82.8028 83.3802 40.5336 131.202C-0.969243 178.156 -8.01165 253.553 10.6799 311.855C28.8431 368.508 93.9533 391.272 136.902 431.789Z" fill="#FC9783"/>
</svg>
