<svg width="110" height="110" viewBox="0 0 110 110" fill="none" xmlns="http://www.w3.org/2000/svg">
<path d="M56.7388 44.3744C56.5625 44.5872 55.4828 46.7101 54.3391 49.0922C52.0906 53.7754 50.3481 54.6388 49.4008 55.1459C48.818 55.4577 47.6533 56.9736 40.4321 58.0815C36.639 58.6631 35.9463 58.9164 35.9463 59.7214C35.9463 60.0258 38.033 62.3454 40.5831 64.8764C43.6616 67.932 43.889 70.4499 44.1195 71.1478C44.4656 72.1966 45.4522 75.0808 44.1195 81.5363C43.5425 84.3311 43.5549 84.4707 44.4143 84.8623C45.0429 85.1485 45.5432 84.9861 47.8946 83.7319C49.4053 82.9263 51.9115 81.5896 53.4639 80.7614C54.4714 79.9883 57.7272 78.6357 64.0612 81.9286C66.8891 83.3987 69.3814 84.7417 69.5991 84.9131C70.1068 85.3125 71.5234 84.7049 71.5234 84.088C71.5234 83.6787 70.9922 80.4842 69.8321 73.9145C69.4228 71.5983 69.4145 71.0563 69.7749 70.1941C70.01 69.6313 72.1997 67.2644 74.7269 64.8417C78.2651 61.4498 79.2576 60.3237 79.2576 59.7013C79.2576 58.7506 79.3405 58.7763 73.5343 57.924C66.3898 56.8752 65.9397 56.7809 65.0799 56.1479C64.5556 55.7621 63.2918 53.6139 61.6237 50.2734C60.1774 47.3771 58.8029 44.7778 58.5696 44.4975C58.0657 43.8927 57.1868 43.8336 56.7388 44.3744Z" fill="#FC9783"/>
<path fill-rule="evenodd" clip-rule="evenodd" d="M77.6471 9.325C76.344 9.77915 75.0855 11.0265 74.2211 12.7203C73.8149 13.5166 73.3438 14.2535 73.1743 14.3584C73.0047 14.4633 72.2904 14.3937 71.5866 14.2043C69.7292 13.7041 68.0354 14.0929 66.6606 15.3351C64.9126 16.9141 64.3904 18.2514 64.2002 21.6365L64.035 24.5755L61.8957 24.668C59.0325 24.7921 57.701 25.6765 56.4453 28.2879C55.955 29.3076 55.8492 30.223 55.8436 33.4902C55.8365 37.6218 56.0799 38.6517 57.0631 38.6517C58.3825 38.6517 58.6211 37.9101 58.6211 33.8048C58.6211 29.496 58.953 28.4553 60.5364 27.7994C61.2117 27.5197 61.6207 27.5284 62.3715 27.8396C64.0644 28.541 64.1897 29.3029 64.1897 38.9032C64.1897 47.1484 64.2169 47.5521 64.8115 48.0901C65.3538 48.5808 65.5317 48.5999 66.2036 48.2405L66.974 47.8281L66.9758 34.1909C66.9767 25.8436 67.1002 20.1114 67.2942 19.4134C67.6583 18.1017 69.1686 16.6867 70.2043 16.6867C70.5935 16.6867 71.2958 16.9886 71.7648 17.3574C73.448 18.6815 73.4706 18.8986 73.4706 33.8395V47.609L74.2521 48.121C74.9837 48.6003 75.0722 48.5978 75.6442 48.0802C76.233 47.5472 76.2549 47.08 76.2562 35.1233C76.2568 28.3012 76.349 20.7121 76.4613 18.2592C76.6568 13.9825 76.6998 13.7607 77.5035 12.8607C78.1377 12.1511 78.6086 11.9224 79.4352 11.9224C80.7726 11.9224 81.4408 12.4431 82.1753 14.0571C82.6962 15.203 82.7386 16.5016 82.7448 31.6028C82.7513 47.3863 82.7708 47.9212 83.3481 48.2299C84.0704 48.6166 84.829 48.3664 85.2352 47.6072C85.4156 47.27 85.5359 42.0788 85.5359 34.6299C85.5359 21.7689 85.5504 21.6115 86.8659 20.167C88.0922 18.8207 90.7456 19.4626 91.4702 21.2811C91.687 21.8259 91.7866 28.0438 91.7665 39.8297C91.73 61.3858 92.0864 59.6075 87.3921 61.6428C83.7697 63.2135 80.8954 66.3483 79.8501 69.8679C79.3118 71.6808 79.5181 72.4975 80.6006 72.8412C81.4705 73.1175 82.0664 72.5362 82.4655 71.0219C83.3295 67.741 85.2454 65.7503 89.6229 63.5841C92.7027 62.0598 92.8329 61.9537 93.6351 60.3073C94.0911 59.3714 95.2296 56.5872 96.1651 54.12C98.3551 48.3444 98.9262 47.0825 100.591 44.3403C102.24 41.6234 104.424 39.5798 105.677 39.5798C107.794 39.5798 107.655 42.5447 105.206 49.6342C104.265 52.3566 103.003 56.3087 102.399 58.4164C100.515 65.0028 94.1913 75.7073 88.8454 83.3063C85.9708 87.393 85.831 87.6176 84.3194 90.5881C83.2747 92.6414 82.281 96.2384 82.04 98.8386C81.8961 100.39 81.9664 100.875 82.4162 101.43C82.8181 101.926 83.1528 102.055 83.6394 101.901C84.38 101.666 84.6251 100.908 85.2385 96.9539C85.7685 93.5398 87.2049 90.5034 90.5921 85.6383C96.0636 77.7794 102.821 66.5512 104.532 61.085C105.118 59.2109 106.544 54.6846 107.701 51.0263C110.333 42.7022 110.577 40.4874 109.083 38.4348C106.099 34.3332 101.049 37.1815 96.6307 45.4577C96.222 46.2234 95.6816 46.8499 95.4294 46.8499C95.0356 46.8499 94.9477 45.1013 94.8011 34.3205C94.6885 26.0592 94.5084 21.4379 94.2721 20.7539C93.2503 17.7961 90.7125 16.1666 87.665 16.5116C85.664 16.738 85.8313 16.9119 85.3865 14.1418C85.1331 12.5647 83.4897 10.4879 81.8309 9.6486C80.3559 8.90241 79.1308 8.80774 77.6471 9.325Z" fill="#FDF5E2"/>
<path fill-rule="evenodd" clip-rule="evenodd" d="M33.3529 9.325C34.6559 9.77915 35.9144 11.0265 36.7788 12.7203C37.185 13.5166 37.6562 14.2535 37.8257 14.3584C37.9952 14.4633 38.7095 14.3937 39.4133 14.2043C41.2708 13.7041 42.9646 14.0929 44.3394 15.3351C46.0873 16.9141 46.6095 18.2514 46.7998 21.6365L46.965 24.5755L49.1042 24.668C51.9674 24.7921 53.2989 25.6765 54.5546 28.2879C55.045 29.3076 55.1508 30.223 55.1564 33.4902C55.1635 37.6218 54.92 38.6517 53.9368 38.6517C52.6174 38.6517 52.3789 37.9101 52.3789 33.8048C52.3789 29.496 52.0469 28.4553 50.4636 27.7994C49.7882 27.5197 49.3793 27.5284 48.6284 27.8396C46.9356 28.541 46.8103 29.3029 46.8103 38.9032C46.8103 47.1484 46.7831 47.5521 46.1885 48.0901C45.6461 48.5808 45.4683 48.5999 44.7963 48.2405L44.026 47.8281L44.0241 34.1909C44.0232 25.8436 43.8998 20.1114 43.7058 19.4134C43.3417 18.1017 41.8314 16.6867 40.7956 16.6867C40.4064 16.6867 39.7042 16.9886 39.2352 17.3574C37.5519 18.6815 37.5293 18.8986 37.5293 33.8395V47.609L36.7479 48.121C36.0162 48.6003 35.9277 48.5978 35.3557 48.0802C34.767 47.5472 34.745 47.08 34.7438 35.1233C34.7432 28.3012 34.651 20.7121 34.5387 18.2592C34.3432 13.9825 34.3002 13.7607 33.4964 12.8607C32.8622 12.1511 32.3914 11.9224 31.5647 11.9224C30.2274 11.9224 29.5591 12.4431 28.8247 14.0571C28.3037 15.203 28.2613 16.5016 28.2551 31.6028C28.2486 47.3863 28.2292 47.9212 27.6519 48.2299C26.9295 48.6166 26.1709 48.3664 25.7647 47.6072C25.5844 47.27 25.464 42.0788 25.464 34.6299C25.464 21.7689 25.4495 21.6115 24.1341 20.167C22.9078 18.8207 20.2543 19.4626 19.5298 21.2811C19.3129 21.8259 19.2133 28.0438 19.2334 39.8297C19.2699 61.3858 18.9135 59.6075 23.6078 61.6428C27.2302 63.2135 30.1045 66.3483 31.1499 69.8679C31.6882 71.6808 31.4818 72.4975 30.3994 72.8412C29.5294 73.1175 28.9336 72.5362 28.5345 71.0219C27.6704 67.741 25.7545 65.7503 21.377 63.5841C18.2973 62.0598 18.167 61.9537 17.3648 60.3073C16.9088 59.3714 15.7704 56.5872 14.8348 54.12C12.6448 48.3444 12.0738 47.0825 10.4087 44.3403C8.75952 41.6234 6.57602 39.5798 5.32247 39.5798C3.2064 39.5798 3.34532 42.5447 5.79426 49.6342C6.73473 52.3566 7.99725 56.3087 8.60051 58.4164C10.4846 65.0028 14.9648 70.1757 20.3107 77.7747C23.1853 81.8614 23.3251 82.086 24.8367 85.0566C25.8814 87.1098 26.8751 87.941 27.1161 90.5413C27.2599 92.0927 27.1897 92.5772 26.7399 93.1328C26.338 93.6287 26.0033 93.7577 25.5167 93.6034C24.776 93.3682 24.531 92.6103 23.9176 88.6566C23.3876 85.2424 21.9512 84.9718 18.564 80.1067C12.2526 72.8413 7.03295 67.109 5.32247 61.6428C4.73622 59.7687 3.03989 54.6059 1.88286 50.9476C-0.749223 42.6235 -0.280284 38.7104 1.21303 36.6578C4.19717 32.5562 9.95089 37.1815 14.3693 45.4577C14.7779 46.2234 15.3184 46.8499 15.5705 46.8499C15.9643 46.8499 16.0522 45.1013 16.1988 34.3205C16.3115 26.0592 16.4915 21.4379 16.7279 20.7539C17.7497 17.7961 20.2874 16.1666 23.335 16.5116C25.336 16.738 25.1686 16.9119 25.6135 14.1418C25.8668 12.5647 27.5102 10.4879 29.169 9.6486C30.6441 8.90241 31.8692 8.80774 33.3529 9.325Z" fill="#FDF5E2"/>
</svg>
