<svg width="110" height="110" viewBox="0 0 110 110" fill="none" xmlns="http://www.w3.org/2000/svg">
<path fill-rule="evenodd" clip-rule="evenodd" d="M15.133 23.6411C14.8338 23.9403 15.133 31.6829 15.133 59.8586C15.133 80.9462 14.4862 96.4008 16.0608 96.4008C16.637 96.7572 88.8711 97.6389 89.2281 97.2819C89.4161 97.0939 89.3312 95.6739 89.2281 95.4053C89.0601 94.9674 85.3216 95.4765 53.2907 95.4053L18.3667 94.4592L17.6536 59.1022C17.5153 27.4314 17.4431 23.3353 17.0224 23.2541C16.7613 23.2038 15.3441 23.43 15.133 23.6411Z" fill="#FC9783"/>
<path d="M26.1406 34.017C25.6446 34.2174 25.6512 37.4584 26.1406 37.9483C40.8893 37.9483 32.7538 37.3009 55.7643 37.9483C87.9568 36.9772 87.778 37.6246 87.4382 34.4503C87.2355 33.8107 87.2086 33.81 56.8832 33.8347C40.1894 33.8482 26.3554 33.9304 26.1406 34.017Z" fill="#FC9783"/>
<path d="M34.5926 67.8871C34.0967 68.0875 34.0876 69.0035 34.577 69.4934C34.8634 69.78 42.078 69.8685 65.1463 69.8685C65.1126 69.7699 73.9941 70.0376 74.9642 70.0376C75.9343 70.0376 76.5811 69.3902 76.5811 69.3902C76.9044 68.7429 76.9137 68.121 76.2577 67.8871C75.9343 67.7718 72.0539 67.7049 72.0539 67.7049H65.3353C48.6414 67.7183 34.8075 67.8005 34.5926 67.8871Z" fill="#FC9783"/>
<path d="M26.9826 45.0221C26.4866 45.2225 25.2991 48.1398 25.7885 48.6297C25.4699 50.3073 34.1855 49.6007 57.3042 49.6007C88.2802 49.6007 88.2802 47.6586 88.2802 45.4554C88.2802 43.2521 88.2802 45.4554 57.7252 44.8398C41.0314 44.8533 27.1974 44.9355 26.9826 45.0221Z" fill="#FC9783"/>
<path d="M27.3347 55.703C26.8387 55.9033 25.6512 58.8207 26.1406 59.3105C25.822 60.9882 34.5492 59.5485 57.6563 60.2816C88.2802 61.2531 88.6323 58.3395 88.6323 56.1362C88.6323 53.933 88.6323 56.1362 58.0773 55.5207C41.3835 55.5341 27.5495 55.6164 27.3347 55.703Z" fill="#FC9783"/>
<path fill-rule="evenodd" clip-rule="evenodd" d="M72.7967 12.1066C71.1402 12.5601 69.745 14.4652 69.2206 16.9888L68.9764 18.165L56.5754 18.2465C45.8116 18.3174 44.1747 18.2674 44.1747 17.867C44.1747 17.0378 43.1737 14.4346 42.5482 13.6363C41.7068 12.5632 40.7804 12.0969 39.4899 12.0969C37.3639 12.0969 35.7186 13.7944 35.0803 16.6468L34.7058 18.3211L27.6501 18.3258C23.7515 18.3286 20.3849 18.4633 20.126 18.6269C19.715 18.8864 19.6451 23.3267 19.5554 54.8267C19.4817 80.7556 19.7737 92.2419 20.0245 92.7107L20.3718 93.3597H56.6838C84.51 93.3597 94.5294 92.7147 94.8167 92.4274C95.1041 92.14 94.9676 82.2707 94.9676 54.566C94.9676 19.1394 94.9554 18.4036 94.3636 18.0869C93.9994 17.892 89.5718 18.3211 85.4117 18.3211C80.1606 18.3211 78.4828 18.2278 78.3944 17.9307C78.3307 17.7162 78.1071 16.876 77.8972 16.0643C77.1889 13.3225 74.8849 11.5347 72.7967 12.1066ZM36.679 17.6865C36.679 16.7686 37.4576 15.044 38.2131 14.2885C40.4684 12.0332 43.1025 17.2864 42.1905 21.7104C41.7036 24.074 41.0031 24.1768 39.6217 24.754C38.8225 25.0879 38.5529 25.3911 38.5529 25.9561C38.5529 27.2919 40.583 27.2445 42.0993 25.8731C42.8958 25.1528 43.9339 23.0762 44.1566 21.7567L44.3415 21.6636L59.2991 21.5823C73.8411 21.5036 75.0945 20.4221 75.0945 19.5545C75.0945 18.8212 74.0091 18.3211 72.4175 18.3211C71.485 18.3211 70.7229 18.2159 70.7238 18.0869C70.7301 17.239 71.495 15.3819 72.1671 14.583C73.1612 13.4018 73.9548 13.3855 75.0932 14.524C77.5368 16.9676 76.8166 23.4395 73.951 24.7887C72.5075 25.4683 72.248 26.2966 73.3248 26.7869C73.9648 27.0786 74.3052 27.0227 75.299 26.4637C76.7654 25.6385 77.8301 24.076 78.3139 22.0393L78.6777 21.5074H90.2349L90.441 28.9906C90.5547 33.6567 90.6475 49.3274 90.6475 63.8144V87.1549H23.6876V21.5074H30.7193C35.6868 21.5074 39.9734 21.4221 40.2451 21.3178C40.8298 21.0936 40.8935 19.225 40.3644 18.6959C40.1583 18.4898 39.2447 18.3211 38.3343 18.3211C36.8786 18.3211 36.679 18.2446 36.679 17.6865Z" fill="#FDF5E2"/>
</svg>
