<svg width="110" height="110" viewBox="0 0 110 110" fill="none" xmlns="http://www.w3.org/2000/svg">
<g clip-path="url(#clip0_1574_1535)">
<path d="M47.1664 8.75747C33.9067 11.6766 25.7197 18.2826 18.7432 28.5866C10.7658 40.3694 7.16495 55.4966 12.5873 66.9883C18.8964 80.3591 30.4106 89.0058 44.6547 91.0697C49.9679 91.8391 53.0754 90.6093 53.6795 90.3373C53.7077 90.3247 53.6623 90.2323 53.6795 90.224C53.6494 90.1936 53.621 90.1529 53.5939 90.1034C53.1986 89.3827 53.0594 86.7881 51.4104 86.5796C45.6921 85.8574 40.2253 85.3602 36.058 83.6218C26.4742 79.6241 18.5439 71.1278 15.5899 61.6933C13.9095 56.3263 14.0532 46.9786 15.9059 41.1653C19.3899 30.2359 28.3317 20.8522 40.0071 15.8739C45.6059 13.4864 49.6163 12.7313 56.7423 12.7229C68.7131 12.708 77.0831 15.9846 84.8934 23.7422C94.8678 33.6501 97.8075 45.9519 93.3295 59.0458C91.824 63.447 89.5649 67.2948 85.9403 71.6314C84.2419 73.6631 82.8526 75.5078 82.8526 75.7313C82.8526 75.9542 83.3002 76.6913 83.8477 77.368C84.7138 78.4402 85.015 78.5201 86.1791 77.9885C87.9558 77.1779 92.3688 71.8067 94.7203 67.5924C106.334 46.7843 98.1499 21.9054 76.4299 11.9874C69.9549 9.03069 64.6404 7.94151 56.9907 8.0024C53.3402 8.03206 48.9192 8.37146 47.1664 8.75747Z" fill="#FDF5E2"/>
<path fill-rule="evenodd" clip-rule="evenodd" d="M58.0158 64.4551C58.0158 71.1797 59.0637 84.325 59.6498 84.954C59.9256 85.25 61.2335 84.6702 62.9319 83.4979C64.485 82.4262 66.2231 81.5494 66.7943 81.5494C67.4427 81.5494 68.5207 82.5396 69.6622 84.1826C82.7696 103.051 85.759 107.281 86.1955 107.574C86.9686 108.094 91.9476 104.843 91.6337 104.023C91.4873 103.641 87.7497 98.13 83.3271 91.7771C78.9051 85.4237 74.7305 79.4182 74.0498 78.4307C72.2621 75.8388 72.4666 74.5082 75.0322 72.0381C76.2534 70.8626 77.417 69.9005 77.6179 69.9005C77.8192 69.9005 78.1267 69.5272 78.3011 69.0708C78.5479 68.4264 77.053 67.4934 71.62 64.9015C62.5906 60.593 59.6355 59.3106 58.7414 59.3106C58.176 59.3106 58.0158 60.4469 58.0158 64.4551Z" fill="#FC9783"/>
<path d="M49.4276 38.3245C42.7349 40.8269 39.1235 48.2753 41.084 55.5342C41.9095 58.5915 45.9653 63.017 47.9422 63.017C51.1498 63.017 51.4177 60.818 48.5419 58.0874C44.8893 54.6192 44.3281 49.5117 47.187 45.7555C51.5969 39.9628 60.4979 41.8737 62.7845 49.1045C63.8382 52.4356 65.8304 53.3691 67.2509 51.1971C69.0909 48.3828 65.237 41.5317 60.4298 39.0722C57.7041 37.6775 52.1649 37.301 49.4276 38.3245Z" fill="#FDF5E2"/>
<path d="M44.8048 24.806C39.8655 26.4522 37.284 28.0793 33.4169 31.9854C27.4423 38.0201 24.8783 44.7341 25.4083 52.9566C26.098 63.6487 31.4051 71.6769 40.9599 76.4821C45.3026 78.6658 48.2407 78.9787 48.7681 77.3134C49.1681 76.0511 48.6476 74.1365 47.9052 74.1365C47.6151 74.1365 45.5996 73.3131 43.4266 72.307C31.3348 66.7092 26.5773 52.4377 32.8372 40.542C36.2779 34.0028 42.3512 29.7488 49.9053 28.5866C57.0345 27.4894 63.6448 29.626 68.7749 34.6842C74.0266 39.8638 75.9681 44.5207 75.977 51.9654C75.9834 57.0035 76.5472 58.0938 78.847 57.515C80.4514 57.1121 80.8942 55.7756 80.8942 51.3401C80.8942 39.7796 73.8892 29.6694 62.8965 25.3656C58.6468 23.7014 49.0123 23.4033 44.8048 24.806Z" fill="#FDF5E2"/>
</g>
<defs>
<clipPath id="clip0_1574_1535">
<rect width="110" height="110" fill="white"/>
</clipPath>
</defs>
</svg>
