<svg width="125" height="35" viewBox="0 0 125 35" fill="none" xmlns="http://www.w3.org/2000/svg">
<g id="Vector">
<path d="M15.2425 30.4849C12.7337 30.4849 10.3665 29.8788 8.27929 28.8051C7.84553 25.6409 8.80042 22.2264 11.144 18.7637C15.3215 13.0197 15.8055 5.4456 10.8452 0.643866C12.2375 0.225064 13.7137 0 15.2425 0C18.4423 0 21.4118 0.985966 23.8637 2.67066C23.4974 6.32484 21.3391 9.52949 18.6425 11.8497C12.4748 17.6906 12.1761 24.9528 15.3085 30.4848L15.2425 30.4849Z" fill="#FEFAF0"/>
<path d="M8.67601 17.2822C12.8324 10.9847 11.5552 5.21172 7.72752 1.97826C3.11299 4.59829 0 9.55684 0 15.2425C0 19.7041 1.91693 23.718 4.97212 26.5055C5.2739 22.5313 7.2967 19.1628 8.67601 17.2822Z" fill="#FEFAF0"/>
<path d="M30.4849 15.2425C30.4849 22.4589 25.47 28.504 18.735 30.0829C14.2685 23.8082 17.0704 16.8077 21.1105 13.5288C24.1135 10.7097 25.8257 7.8322 26.5751 5.04894C29.0057 7.7494 30.4849 11.3232 30.4849 15.2425Z" fill="#FEFAF0"/>
<path d="M40.6658 34.4031V11.1396H49.373C51.3448 11.1396 53.0398 11.4608 54.4577 12.1033C55.8757 12.7237 56.9613 13.6321 57.7146 14.8285C58.4901 16.0027 58.8778 17.4318 58.8778 19.1156C58.8778 20.7551 58.4901 22.1731 57.7146 23.3695C56.9613 24.5438 55.8757 25.4521 54.4577 26.0947C53.0398 26.715 51.3448 27.0252 49.373 27.0252H42.0284L43.1251 25.8953V34.4031H40.6658ZM56.5514 34.4031L50.5694 25.9617H53.2281L59.2434 34.4031H56.5514ZM43.1251 26.0947L42.0284 24.9315H49.3065C51.6329 24.9315 53.3943 24.4219 54.5907 23.4027C55.8092 22.3836 56.4185 20.9545 56.4185 19.1156C56.4185 17.2545 55.8092 15.8144 54.5907 14.7952C53.3943 13.7761 51.6329 13.2665 49.3065 13.2665H42.0284L43.1251 12.1033V26.0947Z" fill="#FEFAF0"/>
<path d="M72.0114 34.3394C70.217 34.6236 68.5825 34.5012 67.1079 33.972C65.6299 33.421 64.4039 32.5497 63.4301 31.358C62.4528 30.1445 61.8289 28.6843 61.5586 26.9774C61.2882 25.2705 61.4102 23.7034 61.9244 22.2761C62.4604 20.8452 63.3041 19.6573 64.4555 18.7123C65.6253 17.7419 67.0089 17.1302 68.6064 16.8772C70.2257 16.6207 71.718 16.7657 73.0831 17.3121C74.4667 17.8332 75.6253 18.704 76.5588 19.9245C77.4889 21.1231 78.0909 22.5868 78.3647 24.3156C78.382 24.425 78.3901 24.5471 78.3891 24.6818C78.4064 24.7912 78.4254 24.9116 78.4462 25.0429L63.4455 27.4188L63.1699 25.6791L76.9234 23.5008L76.1135 24.3356C75.9159 23.0883 75.4673 22.0265 74.7678 21.1503C74.0866 20.2488 73.2432 19.5973 72.2374 19.1958C71.2317 18.7943 70.1271 18.6888 68.9235 18.8794C67.7418 19.0666 66.7238 19.5082 65.8695 20.2043C65.0152 20.9005 64.4034 21.7825 64.0342 22.8504C63.665 23.9183 63.5809 25.0869 63.7819 26.3561L63.8391 26.7171C64.047 28.0301 64.5152 29.1448 65.2436 30.0613C65.9904 30.9525 66.9231 31.6011 68.0417 32.0072C69.1787 32.3879 70.4147 32.4725 71.7495 32.2611C72.7999 32.0947 73.7443 31.7545 74.5825 31.2404C75.4427 30.7228 76.1404 30.0291 76.6756 29.1592L78.2277 30.4612C77.6073 31.5016 76.7554 32.3543 75.6719 33.0194C74.6102 33.6811 73.3901 34.1211 72.0114 34.3394Z" fill="#FEFAF0"/>
<path d="M82.2522 34.4031V9.74375H84.6118V34.4031H82.2522Z" fill="#FEFAF0"/>
<path d="M88.8981 34.4031V16.9554H91.2577V34.4031H88.8981ZM90.0945 13.1003C89.6071 13.1003 89.1972 12.9342 88.8649 12.6018C88.5325 12.2695 88.3664 11.8707 88.3664 11.4054C88.3664 10.9402 88.5325 10.5524 88.8649 10.2422C89.1972 9.90991 89.6071 9.74375 90.0945 9.74375C90.582 9.74375 90.9918 9.89884 91.3242 10.209C91.6565 10.5192 91.8227 10.9069 91.8227 11.3722C91.8227 11.8596 91.6565 12.2695 91.3242 12.6018C91.014 12.9342 90.6041 13.1003 90.0945 13.1003Z" fill="#FEFAF0"/>
<path d="M105.244 34.3384C103.45 34.6226 101.815 34.5001 100.341 33.971C98.8628 33.42 97.6368 32.5486 96.663 31.3569C95.6856 30.1434 95.0618 28.6832 94.7915 26.9763C94.5211 25.2694 94.643 23.7023 95.1572 22.275C95.6933 20.8442 96.537 19.6562 97.6884 18.7112C98.8582 17.7408 100.242 17.1291 101.839 16.8761C103.459 16.6196 104.951 16.7646 106.316 17.3111C107.7 17.8322 108.858 18.703 109.792 19.9235C110.722 21.1221 111.324 22.5857 111.598 24.3145C111.615 24.4239 111.623 24.546 111.622 24.6808C111.639 24.7902 111.658 24.9105 111.679 25.0418L96.6784 27.4177L96.4028 25.678L110.156 23.4997L109.346 24.3346C109.149 23.0872 108.7 22.0255 108.001 21.1493C107.319 20.2477 106.476 19.5962 105.47 19.1947C104.465 18.7932 103.36 18.6877 102.156 18.8784C100.975 19.0655 99.9567 19.5072 99.1024 20.2033C98.2481 20.8994 97.6363 21.7814 97.2671 22.8493C96.8978 23.9172 96.8137 25.0858 97.0148 26.355L97.0719 26.7161C97.2799 28.029 97.7481 29.1438 98.4765 30.0603C99.2233 30.9514 100.156 31.6 101.275 32.0061C102.412 32.3868 103.648 32.4715 104.982 32.26C106.033 32.0937 106.977 31.7534 107.815 31.2393C108.676 30.7217 109.373 30.028 109.908 29.1581L111.461 30.4601C110.84 31.5005 109.988 32.3532 108.905 33.0184C107.843 33.68 106.623 34.12 105.244 34.3384Z" fill="#FEFAF0"/>
<path d="M116.216 34.4031V14.762C116.216 13.2111 116.67 11.9593 117.578 11.0066C118.487 10.0539 119.794 9.57758 121.5 9.57758C122.164 9.57758 122.807 9.6662 123.427 9.84345C124.048 10.0207 124.568 10.2976 124.989 10.6743L124.192 12.4357C123.859 12.1476 123.472 11.9372 123.028 11.8042C122.585 11.6491 122.109 11.5716 121.599 11.5716C120.602 11.5716 119.838 11.8485 119.306 12.4024C118.775 12.9563 118.509 13.7761 118.509 14.8617V17.5204L118.575 18.6171V34.4031H116.216ZM113.092 18.9162V16.9554H123.893V18.9162H113.092Z" fill="#FEFAF0"/>
</g>
</svg>
