<svg width="101" height="29" viewBox="0 0 101 29" fill="none" xmlns="http://www.w3.org/2000/svg">
<path d="M12.2306 24.4611C10.2726 24.4611 8.42202 24.001 6.78117 23.183C6.40182 20.6242 7.17936 17.8593 9.11379 15.055C12.5412 10.4313 12.9286 4.32975 8.83042 0.47883C9.90987 0.167065 11.0507 0 12.2306 0C14.9478 0 17.4581 0.886117 19.4882 2.38514C19.1186 5.21614 17.3906 7.69701 15.2465 9.50711C10.2031 14.1931 9.9581 20.0192 12.5186 24.4578C12.4228 24.46 12.3268 24.4611 12.2306 24.4611Z" fill="#143CFF"/>
<path d="M7.09543 13.8663C10.5118 8.78754 9.43939 4.134 6.27198 1.54712C2.53001 3.63864 0 7.63914 0 12.2306C0 15.8454 1.5682 19.0939 4.06138 21.333C4.29029 18.1154 5.95962 15.3857 7.09543 13.8663Z" fill="#143CFF"/>
<path d="M24.4611 12.2306C24.4611 17.9327 20.559 22.7234 15.2794 24.0781C11.6873 19.0585 13.9738 13.4751 17.2648 10.8544C19.591 8.7119 20.9701 6.52738 21.6302 4.40488C23.3978 6.52564 24.4611 9.25392 24.4611 12.2306Z" fill="#143CFF"/>
<path d="M32.6004 28.1263V9.4597H39.5871C41.1693 9.4597 42.5293 9.71748 43.6671 10.233C44.8048 10.7308 45.6759 11.4597 46.2804 12.4197C46.9026 13.3619 47.2137 14.5086 47.2137 15.8597C47.2137 17.1752 46.9026 18.313 46.2804 19.273C45.6759 20.2152 44.8048 20.9441 43.6671 21.4597C42.5293 21.9575 41.1693 22.2063 39.5871 22.2063H33.6937L34.5737 21.2997V28.1263H32.6004ZM45.3471 28.1263L40.5471 21.353H42.6804L47.5071 28.1263H45.3471ZM34.5737 21.4597L33.6937 20.5263H39.5337C41.4004 20.5263 42.8137 20.1175 43.7737 19.2997C44.7515 18.4819 45.2404 17.3352 45.2404 15.8597C45.2404 14.3664 44.7515 13.2108 43.7737 12.393C42.8137 11.5753 41.4004 11.1664 39.5337 11.1664H33.6937L34.5737 10.233V21.4597Z" fill="#143CFF"/>
<path d="M57.9373 28.0578C56.4975 28.2858 55.186 28.1875 54.0028 27.763C52.8168 27.3208 51.8331 26.6217 51.0517 25.6655C50.2675 24.6917 49.7669 23.52 49.55 22.1504C49.3331 20.7809 49.4309 19.5234 49.8435 18.3781C50.2736 17.23 50.9506 16.2768 51.8745 15.5185C52.8131 14.7399 53.9233 14.249 55.2051 14.046C56.5045 13.8402 57.7019 13.9566 58.7973 14.3951C59.9075 14.8132 60.8371 15.5119 61.5862 16.4912C62.3325 17.453 62.8155 18.6274 63.0352 20.0146C63.0491 20.1024 63.0556 20.2004 63.0547 20.3085C63.0686 20.3963 63.0839 20.4929 63.1006 20.5982L51.064 22.5046L50.8429 21.1087L61.8787 19.3608L61.2288 20.0307C61.0703 19.0299 60.7104 18.1779 60.149 17.4748C59.6025 16.7514 58.9257 16.2286 58.1187 15.9065C57.3117 15.5843 56.4253 15.4997 55.4596 15.6527C54.5114 15.8028 53.6946 16.1572 53.009 16.7158C52.3235 17.2743 51.8327 17.982 51.5364 18.8389C51.2401 19.6958 51.1726 20.6335 51.3339 21.6519L51.3798 21.9416C51.5467 22.9952 51.9224 23.8896 52.5068 24.625C53.1061 25.3401 53.8545 25.8605 54.752 26.1863C55.6644 26.4918 56.6561 26.5597 57.7272 26.3901C58.57 26.2566 59.3278 25.9836 60.0004 25.5711C60.6906 25.1558 61.2504 24.5991 61.6798 23.9011L62.9253 24.9458C62.4275 25.7806 61.7439 26.4649 60.8745 26.9986C60.0226 27.5295 59.0435 27.8826 57.9373 28.0578Z" fill="#143CFF"/>
<path d="M66.3883 28.1263V8.3397H68.2817V28.1263H66.3883Z" fill="#143CFF"/>
<path d="M71.7211 28.1263V14.1264H73.6145V28.1263H71.7211ZM72.6811 11.033C72.29 11.033 71.9611 10.8997 71.6945 10.633C71.4278 10.3664 71.2945 10.0464 71.2945 9.67303C71.2945 9.2997 71.4278 8.98859 71.6945 8.7397C71.9611 8.47304 72.29 8.3397 72.6811 8.3397C73.0722 8.3397 73.4011 8.46415 73.6678 8.71303C73.9345 8.96192 74.0678 9.27303 74.0678 9.64637C74.0678 10.0375 73.9345 10.3664 73.6678 10.633C73.4189 10.8997 73.09 11.033 72.6811 11.033Z" fill="#143CFF"/>
<path d="M84.6034 28.0553C83.1636 28.2834 81.8521 28.1851 80.6689 27.7605C79.4829 27.3184 78.4992 26.6192 77.7178 25.663C76.9336 24.6893 76.433 23.5176 76.2161 22.148C75.9992 20.7784 76.097 19.521 76.5096 18.3757C76.9397 17.2276 77.6167 16.2744 78.5406 15.5161C79.4792 14.7374 80.5894 14.2466 81.8712 14.0436C83.1706 13.8378 84.368 13.9541 85.4634 14.3926C86.5736 14.8108 87.5032 15.5095 88.2523 16.4888C88.9986 17.4506 89.4816 18.625 89.7013 20.0122C89.7152 20.1 89.7217 20.1979 89.7209 20.3061C89.7348 20.3939 89.7501 20.4904 89.7667 20.5958L77.7301 22.5022L77.509 21.1063L88.5448 19.3584L87.8949 20.0283C87.7364 19.0274 87.3765 18.1755 86.8151 17.4724C86.2686 16.749 85.5918 16.2262 84.7848 15.904C83.9778 15.5819 83.0914 15.4973 82.1257 15.6502C81.1775 15.8004 80.3607 16.1548 79.6752 16.7133C78.9897 17.2719 78.4988 17.9796 78.2025 18.8365C77.9062 19.6934 77.8388 20.6311 78.0001 21.6495L78.0459 21.9392C78.2128 22.9927 78.5885 23.8872 79.1729 24.6226C79.7722 25.3377 80.5206 25.8581 81.4181 26.1839C82.3305 26.4894 83.3222 26.5573 84.3933 26.3877C85.2361 26.2542 85.9939 25.9812 86.6665 25.5687C87.3567 25.1534 87.9165 24.5967 88.3459 23.8987L89.5914 24.9434C89.0936 25.7782 88.41 26.4625 87.5406 26.9962C86.6887 27.5271 85.7097 27.8801 84.6034 28.0553Z" fill="#143CFF"/>
<path d="M93.4369 28.1263V12.3664C93.4369 11.1219 93.8014 10.1175 94.5303 9.35303C95.2592 8.58859 96.308 8.20637 97.6769 8.20637C98.2103 8.20637 98.7258 8.27748 99.2236 8.4197C99.7214 8.56192 100.139 8.78415 100.477 9.08637L99.8369 10.4997C99.5703 10.2686 99.2592 10.0997 98.9036 9.99303C98.548 9.86859 98.1658 9.80637 97.7569 9.80637C96.9569 9.80637 96.3436 10.0286 95.9169 10.473C95.4903 10.9175 95.2769 11.5753 95.2769 12.4464V14.5797L95.3303 15.4597V28.1263H93.4369ZM90.9303 15.6997V14.1264H99.5969V15.6997H90.9303Z" fill="#143CFF"/>
</svg>
