<svg xmlns="http://www.w3.org/2000/svg" width="205.569" height="35.19" viewBox="0 0 205.569 35.19"><defs><style>.a{fill:#fff7e5;}</style></defs><g transform="translate(-67.5 -218.759)"><path class="a" d="M97.82,253.325V230.468l-8.7,22.857H85.176l-8.76-22.857v22.857H67.5V218.759H79.889l7.258,19.072,7.2-19.072h12.389v34.566Z"/><path class="a" d="M155.922,260.24v-2.488c-1.552,1.864-4.564,3.112-7.775,3.112-3.834,0-8.6-2.644-8.6-8.243,0-6.06,4.77-8.087,8.6-8.087,3.317,0,6.272,1.091,7.775,2.956V245c0-2.176-1.864-3.678-5.082-3.678a10.957,10.957,0,0,0-7,2.693l-2.955-5.542a17.651,17.651,0,0,1,11.354-3.884c6.01,0,11.659,2.225,11.659,10V260.24Zm0-6.428v-2.225c-.83-1.191-2.693-1.765-4.458-1.765-2.069,0-3.99.935-3.99,2.906s1.921,2.9,3.99,2.9c1.765,0,3.629-.617,4.458-1.815" transform="translate(-31.468 -6.915)"/><path class="a" d="M183.8,256.973l3.317-5.7a15.639,15.639,0,0,0,8.81,3.367c2.382,0,3.367-.674,3.367-1.765,0-3.1-14.558.106-14.558-10.05,0-4.409,3.834-8.243,10.723-8.243a17.492,17.492,0,0,1,10.468,3.317l-3.055,5.649a11.172,11.172,0,0,0-7.357-2.743c-1.871,0-3.111.723-3.111,1.708,0,2.743,14.508-.106,14.508,10.156,0,4.77-4.2,8.186-11.347,8.186-4.507,0-9.122-1.5-11.765-3.884" transform="translate(-50.8 -6.912)"/><path class="a" d="M243.624,253.326V238.76c0-3.054-1.609-4.04-4.146-4.04a6.154,6.154,0,0,0-4.82,2.438v16.167h-7.981V218.76h7.981v12.594a11.3,11.3,0,0,1,8.654-3.678c5.7,0,8.292,3.21,8.292,7.825v17.825Z" transform="translate(-69.528 0)"/><path class="a" d="M289.332,260.24v-2.488c-1.552,1.864-4.565,3.112-7.775,3.112-3.834,0-8.6-2.644-8.6-8.243,0-6.06,4.77-8.087,8.6-8.087,3.317,0,6.272,1.091,7.775,2.956V245c0-2.176-1.864-3.678-5.082-3.678a10.957,10.957,0,0,0-7,2.693l-2.956-5.542a17.654,17.654,0,0,1,11.355-3.884c6.01,0,11.659,2.225,11.659,10V260.24Zm0-6.428v-2.225c-.83-1.191-2.693-1.765-4.458-1.765-2.069,0-3.99.935-3.99,2.906s1.921,2.9,3.99,2.9c1.765,0,3.629-.617,4.458-1.815" transform="translate(-89.741 -6.915)"/><path class="a" d="M321.075,253.326V218.76h7.981v12.488a9.225,9.225,0,0,1,7.413-3.572c6.272,0,11.035,4.918,11.035,13.112,0,8.5-4.869,13.161-11.035,13.161a9.575,9.575,0,0,1-7.413-3.523v2.9Zm12.75-6.428c3.161,0,5.543-2.332,5.543-6.109,0-3.735-2.381-6.067-5.543-6.067a6.39,6.39,0,0,0-4.77,2.283v7.669a6.336,6.336,0,0,0,4.77,2.225" transform="translate(-110.761 0)"/><rect class="a" width="7.981" height="34.566" transform="translate(237.884 218.76)"/><path class="a" d="M386.215,247.7a12.875,12.875,0,0,1,13.268-13.112c7.413,0,12.8,5.443,12.8,13.941v1.815H394.457c.567,2.225,2.644,4.1,6.266,4.1a10.409,10.409,0,0,0,6.116-2.127l3.473,5.23c-2.488,2.233-6.634,3.317-10.468,3.317-7.719,0-13.63-5.025-13.63-13.162m13.268-6.684c-3.473,0-4.82,2.069-5.131,3.884h10.312c-.206-1.764-1.5-3.884-5.181-3.884" transform="translate(-139.214 -6.912)"/></g></svg>