<svg xmlns="http://www.w3.org/2000/svg" width="96.781" height="50.814" viewBox="0 0 96.781 50.814"><defs><style>.a{fill:#fff7e5;}</style></defs><g transform="translate(-67.5 -154.181)"><path class="a" d="M333.386,219.683a14.849,14.849,0,0,1-14.778-12.8h14.038c1.55,0,4.932.326,4.932.326V201s-3.316.246-5.172.246h-13.8a14.916,14.916,0,0,1,14.778-12.426,30.016,30.016,0,0,1,8.635,1.771l.085-6.539a26.835,26.835,0,0,0-8.721-1.283c-12.35,0-23.149,9.434-23.149,21.454,0,13,10.8,21.781,23.149,21.781a24.633,24.633,0,0,0,9.27-1.55l-.166-6.763A24.216,24.216,0,0,1,333.386,219.683Z" transform="translate(-178.373 -21.004)"/><path class="a" d="M205.934,227.86a46.889,46.889,0,0,0,.469-5.885v-29.83h-2.017c-2.75,0-7,0-10.145.307l-.267-6.932h32.764l-.159,6.932c-3.244-.307-7.42-.307-10.248-.307h-2.489v29.83a40.251,40.251,0,0,0,.549,5.885Z" transform="translate(-92.939 -23.03)"/><path class="a" d="M356.467,159.031a32.786,32.786,0,0,0-8.21-1.14,26.889,26.889,0,0,0-18.563,6.782l.079-5.089a32.045,32.045,0,0,1,18.483-5.4,31.7,31.7,0,0,1,8.289,1.12Z" transform="translate(-192.672)"/><path class="a" d="M98.325,219.592,86.941,208.628c7.005-.676,12.9-5.826,12.9-12.51,0-7.108-4.1-13.406-16.324-13.913q-.763-.037-1.588-.039c-8.458,0-14.262.4-14.262.4s.386,4.175.386,6.274v30.746a37.046,37.046,0,0,1-.55,5.8h8.536a39.355,39.355,0,0,1-.549-6.358V206.528l8.026,8.395,4.058,4.2a80.094,80.094,0,0,0,6.865,6.273h11.287A83.016,83.016,0,0,1,98.325,219.592ZM81.6,203.612H75.486v-15.4s2.974-.084,6.517-.084c.531,0,1.045.044,1.51.066,5.685.469,8.032,3.562,8.032,7.29,0,4.176-3.3,7.337-8.032,8.01A14.678,14.678,0,0,1,81.6,203.612Z" transform="translate(0 -20.565)"/></g></svg>