<svg xmlns="http://www.w3.org/2000/svg" width="189.943" height="44.807" viewBox="0 0 189.943 44.807"><defs><style>.a{fill:#fff7e5;}</style></defs><g transform="translate(198.82 439.617)"><path class="a" d="M15.064-375.12l-3.7,8.737L4.086-378.144a10.318,10.318,0,0,0-2.464-.336,6.778,6.778,0,0,0-5.489,2.539l-7.02,7.692,5.675,8.924a4.988,4.988,0,0,0,4.667,2.464,8.449,8.449,0,0,0,3.248-.6l-6.833-10.306,4.854-5.115,7.953,12.471L3.825-350.251a6.089,6.089,0,0,0,2.726.56A3.942,3.942,0,0,0,10.7-352.38l11.426-25.465a6.592,6.592,0,0,0-2.352-.56C18.312-378.443,16.333-378.144,15.064-375.12Z" transform="translate(-152.236 -49.524)"/><path class="a" d="M-42.341-412.968V-388.1a7.106,7.106,0,0,0,1.307.112c3.659,0,4.406-1.083,4.406-2.95v-25.727a5.8,5.8,0,0,0-1.382-.15C-41.706-416.814-42.341-414.872-42.341-412.968Z" transform="translate(-126.757 -18.472)"/><path class="a" d="M-135.722-369.928l-4.219-.784c-1.344-.224-2.2-.56-2.2-1.307,0-.709.859-1.307,3.025-1.307,2.128,0,3.958.224,5.153.224,1.568,0,3.174-.635,3.174-3.7a6.477,6.477,0,0,0-.112-1.195,46.112,46.112,0,0,0-9.932-.336c-4.555.523-6.87,3.249-6.87,6.534,0,2.688,1.942,5.227,5.6,5.937l4.369.784c1.643.336,2.464.672,2.464,1.568,0,.672-.6,1.382-2.688,1.382-1.9,0-4.443-.262-6.049-.262-1.568,0-3.211.709-3.211,3.771a6.944,6.944,0,0,0,.149,1.232,55.633,55.633,0,0,0,10.567.336c4.667-.523,6.945-3.062,6.945-6.572h0C-129.561-366.642-131.391-369.106-135.722-369.928Z" transform="translate(-41.404 -49.526)"/><path class="a" d="M392.778-362.027c-3.3,0-6.195,2.172-6.718,6.275h12.792C398.731-359.291,396.438-362.027,392.778-362.027Z" transform="translate(-473.786 -62.852)"/><path class="a" d="M-8.88-421.014v-15.628a2.98,2.98,0,0,0-2.989-2.975h-184a2.98,2.98,0,0,0-2.95,2.95v38.87a3,3,0,0,0,2.987,2.987h184a2.972,2.972,0,0,0,2.956-2.957v-23.243Zm-115.373,4.686v20.4h-71.206a1.971,1.971,0,0,1-2.24-2.24v-38.086a1.968,1.968,0,0,1,2.24-2.24h71.206v-.945l0,23.113Zm29.167,8.338c0,.85-.486,1.376-1.943,1.376a8.826,8.826,0,0,1-1.66-.162v-11.8c0-4.21-2.064-6.234-5.182-6.234a7.458,7.458,0,0,0-6.113,3.643v13.134c0,.85-.445,1.376-1.9,1.376a12.5,12.5,0,0,1-1.619-.2h0v-20.7a8.94,8.94,0,0,1,1.7-.162c1.377,0,1.781.567,1.781,1.417v1.538a9.381,9.381,0,0,1,7.084-3.2c4.291,0,7.854,2.712,7.854,8.947Zm23.531-7.718H-87.686c.563,3.942,3.3,6.275,7.442,6.275a13.542,13.542,0,0,0,4.465-.885,5.631,5.631,0,0,1,1.69-.442c.925,0,1.569.885,1.368,2.735a19.187,19.187,0,0,1-7.683,1.73c-6.436,0-10.941-4.465-10.941-10.982,0-6.195,4.465-10.7,10.338-10.7,6.436,0,9.614,5.028,9.614,10.057A14.313,14.313,0,0,1-71.555-415.708Zm27.423,7.608c-.471,1.089-.9,1.488-2.451,1.488a7.962,7.962,0,0,1-2.047-.28L-53.953-423.8l-4.988,15.577c-.371.959-.767,1.6-2.5,1.6a7.145,7.145,0,0,1-2.091-.288l-5.932-20.325a4.619,4.619,0,0,1,2.179-.527c1.269,0,1.539.541,1.8,1.434l4.208,15.816L-56-427.322a5.441,5.441,0,0,1,2.169-.458,2.183,2.183,0,0,1,2.461,1.818l4.784,15.458,4.1-15.949a1.606,1.606,0,0,1,1.716-1.332,4.75,4.75,0,0,1,2.2.538Zm16.329,1.756a24.678,24.678,0,0,1-7.967-1.321,1.881,1.881,0,0,1-.11-.765c0-1.072.274-2.022,1.358-2.022.98-.017,3.328,1.182,6.776,1.182,3.712,0,5.06-1.453,5.06-3.126,0-4.659-13.186-2.208-13.186-9.729,0-3.505,2.984-5.9,8.026-5.9a21.49,21.49,0,0,1,7.561,1.348c.151.691.123,2.639-1.215,2.639-1.542,0-3.085-1.038-6.3-1.038-3.059,0-4.664,1.113-4.664,2.778,0,4.535,13.271,2.129,13.271,9.847C-19.192-408.739-22.37-406.344-27.8-406.344Z"/></g></svg>