<svg width="1440" height="800" viewBox="0 0 1440 800" fill="none" xmlns="http://www.w3.org/2000/svg">
<path fill-rule="evenodd" clip-rule="evenodd" d="M1440 0H0V800H1440V0ZM893.567 642.418C958.52 681.079 1046.11 655.703 1119.36 627.414C1182.46 603.042 1226.5 554.048 1262.9 499.773C1299.97 444.506 1333.79 384.925 1324.42 321.668C1314.26 253.042 1271.13 194.391 1211.75 154.336C1167.99 124.822 1136.19 138.345 1095.88 155.483C1075.58 164.116 1053.12 173.666 1025.89 179.094C999.406 184.372 969.537 184.907 939.926 185.438C874.939 186.604 811.191 187.747 787.217 238.948C763.432 289.746 782.043 341.515 800.86 393.855C807.383 412.001 813.931 430.216 818.746 448.482C823.607 466.924 826.641 486.532 829.669 506.102C838.064 560.369 846.415 614.353 893.567 642.418Z" fill="#182B2E"/>
</svg>
