<svg width="1440" height="800" viewBox="0 0 1440 800" fill="none" xmlns="http://www.w3.org/2000/svg">
<path fill-rule="evenodd" clip-rule="evenodd" d="M1440 0H0V800H1440V0ZM899.567 642.418C964.52 681.079 1052.11 655.703 1125.36 627.414C1188.46 603.042 1232.5 554.048 1268.9 499.773C1305.97 444.506 1339.79 384.925 1330.42 321.668C1320.26 253.042 1277.13 194.391 1217.75 154.336C1173.99 124.822 1142.19 138.345 1101.88 155.483C1081.58 164.116 1059.12 173.666 1031.89 179.094C1005.41 184.372 975.537 184.907 945.926 185.438C880.939 186.604 817.191 187.747 793.217 238.948C769.432 289.746 788.043 341.515 806.86 393.855C813.383 412.001 819.931 430.216 824.746 448.482C829.607 466.924 832.641 486.532 835.669 506.102C844.064 560.369 852.415 614.353 899.567 642.418Z" fill="#182B2E"/>
</svg>
